# This file uses centimeters as units for non-parametric coordinates.

mtllib FB_Bomb_Prop.mtl
g default
v -228.106125 9.211727 -9.920238
v -231.589630 9.211727 -7.592609
v -233.917252 9.211727 -4.109117
v -234.734604 9.211727 -0.000017
v -233.917252 9.211727 4.109084
v -231.589645 9.211727 7.592559
v -228.106125 9.211727 9.920206
v -223.997040 9.211727 10.737533
v -219.887955 9.211727 9.920206
v -216.404434 9.211727 7.592576
v -214.076828 9.211727 4.109084
v -213.259476 9.211727 -0.000017
v -214.076828 9.211727 -4.109117
v -216.404434 9.211727 -7.592609
v -219.887955 9.211727 -9.920238
v -223.997040 9.211727 -10.737565
v -231.812973 14.147243 -18.869375
v -238.439011 14.147243 -14.441987
v -242.866394 14.147243 -7.815974
v -244.421082 14.147243 -0.000017
v -242.866409 14.147243 7.815907
v -238.439026 14.147243 14.441954
v -231.812988 14.147243 18.869326
v -223.997040 14.147243 20.424051
v -216.181107 14.147243 18.869343
v -209.555054 14.147243 14.441954
v -205.127686 14.147243 7.815941
v -203.572983 14.147243 -0.000017
v -205.127670 14.147243 -7.815974
v -209.555054 14.147243 -14.441987
v -216.181091 14.147243 -18.869358
v -223.997040 14.147243 -20.424084
v -234.754745 21.834486 -25.971479
v -243.874710 21.834486 -19.877726
v -249.968475 21.834486 -10.757763
v -252.108337 21.834486 -0.000017
v -249.968491 21.834486 10.757713
v -243.874741 21.834486 19.877659
v -234.754776 21.834486 25.971445
v -223.997055 21.834486 28.111267
v -213.239319 21.834486 25.971445
v -204.119354 21.834486 19.877659
v -198.025589 21.834486 10.757730
v -195.885742 21.834486 -0.000017
v -198.025589 21.834486 -10.757747
v -204.119354 21.834486 -19.877691
v -213.239319 21.834486 -25.971479
v -223.997040 21.834486 -28.111301
v -236.643494 31.520981 -30.531286
v -247.364655 31.520981 -23.367645
v -254.528305 31.520981 -12.646517
v -257.043854 31.520981 -0.000017
v -254.528305 31.520981 12.646450
v -247.364670 31.520981 23.367613
v -236.643509 31.520981 30.531237
v -223.997055 31.520981 33.046806
v -211.350586 31.520981 30.531254
v -200.629425 31.520981 23.367630
v -193.465775 31.520981 12.646467
v -190.950226 31.520981 -0.000017
v -193.465775 31.520981 -12.646500
v -200.629410 31.520981 -23.367645
v -211.350571 31.520981 -30.531269
v -223.997040 31.520981 -33.046841
v -237.294296 42.258537 -32.102482
v -248.567200 42.258537 -24.570198
v -256.099518 42.258537 -13.297309
v -258.744507 42.258537 -0.000017
v -256.099518 42.258537 13.297243
v -248.567230 42.258537 24.570133
v -237.294327 42.258537 32.102432
v -223.997055 42.258537 34.747456
v -210.699768 42.258537 32.102432
v -199.426880 42.258537 24.570148
v -191.894562 42.258537 13.297259
v -189.249573 42.258537 -0.000017
v -191.894562 42.258537 -13.297276
v -199.426865 42.258537 -24.570198
v -210.699753 42.258537 -32.102482
v -223.997040 42.258537 -34.747471
v -236.643494 52.996094 -30.531286
v -247.364655 52.996094 -23.367645
v -254.528305 52.996094 -12.646517
v -257.043854 52.996094 -0.000017
v -254.528305 52.996094 12.646450
v -247.364670 52.996094 23.367613
v -236.643509 52.996094 30.531237
v -223.997055 52.996094 33.046806
v -211.350586 52.996094 30.531254
v -200.629425 52.996094 23.367630
v -193.465775 52.996094 12.646467
v -190.950226 52.996094 -0.000017
v -193.465775 52.996094 -12.646500
v -200.629410 52.996094 -23.367645
v -211.350571 52.996094 -30.531269
v -223.997040 52.996094 -33.046841
v -234.754745 62.682587 -25.971479
v -243.874710 62.682587 -19.877726
v -249.968475 62.682587 -10.757763
v -252.108337 62.682587 -0.000017
v -249.968491 62.682587 10.757713
v -243.874741 62.682587 19.877659
v -234.754776 62.682587 25.971445
v -223.997055 62.682587 28.111267
v -213.239319 62.682587 25.971445
v -204.119354 62.682587 19.877659
v -198.025589 62.682587 10.757730
v -195.885742 62.682587 -0.000017
v -198.025589 62.682587 -10.757747
v -204.119354 62.682587 -19.877691
v -213.239319 62.682587 -25.971479
v -223.997040 62.682587 -28.111301
v -231.812973 70.369843 -18.869375
v -238.439011 70.369843 -14.441987
v -242.866394 70.369843 -7.815974
v -244.421082 70.369843 -0.000017
v -242.866409 70.369843 7.815907
v -238.439026 70.369843 14.441954
v -231.812988 70.369843 18.869326
v -223.997040 70.369843 20.424051
v -216.181107 70.369843 18.869343
v -209.555054 70.369843 14.441954
v -205.127686 70.369843 7.815941
v -203.572983 70.369843 -0.000017
v -205.127670 70.369843 -7.815974
v -209.555054 70.369843 -14.441987
v -216.181091 70.369843 -18.869358
v -223.997040 70.369843 -20.424084
v -228.106125 75.305359 -9.920238
v -231.589630 75.305359 -7.592609
v -233.917252 75.305359 -4.109117
v -234.734604 75.305359 -0.000017
v -233.917252 75.305359 4.109084
v -231.589645 75.305359 7.592559
v -228.106125 75.305359 9.920206
v -223.997040 75.305359 10.737533
v -219.887955 75.305359 9.920206
v -216.404434 75.305359 7.592576
v -214.076828 75.305359 4.109084
v -213.259476 75.305359 -0.000017
v -214.076828 75.305359 -4.109117
v -216.404434 75.305359 -7.592609
v -219.887955 75.305359 -9.920238
v -223.997040 75.305359 -10.737565
v -223.997040 7.511066 -0.000017
v -223.997040 77.006012 -0.000017
vt 0.735455 0.073221
vt 0.761171 0.064306
vt 0.798988 0.119301
vt 0.754023 0.129930
vt 0.782340 0.049466
vt 0.840492 0.100356
vt 0.795953 0.028619
vt 0.125400 0.484445
vt 0.216305 0.463288
vt 0.159040 0.513747
vt 0.237331 0.477373
vt 0.199810 0.532256
vt 0.262960 0.485641
vt 0.244413 0.542339
vt 0.290792 0.488165
vt 0.290760 0.545337
vt 0.318647 0.484998
vt 0.337215 0.541707
vt 0.344363 0.476082
vt 0.382180 0.531078
vt 0.365533 0.461243
vt 0.423684 0.512132
vt 0.379145 0.440395
vt 0.542208 0.072668
vt 0.633112 0.051511
vt 0.575848 0.101970
vt 0.654139 0.065596
vt 0.616617 0.120479
vt 0.679768 0.073864
vt 0.661221 0.130562
vt 0.707599 0.076388
vt 0.707568 0.133561
vt 0.824217 0.177108
vt 0.766039 0.185793
vt 0.881479 0.161160
vt 0.064259 0.546032
vt 0.118034 0.573784
vt 0.174424 0.589900
vt 0.232203 0.598207
vt 0.290658 0.600555
vt 0.349232 0.597570
vt 0.407410 0.588884
vt 0.464672 0.572937
vt 0.481067 0.134256
vt 0.534842 0.162007
vt 0.591232 0.178124
vt 0.649011 0.186430
vt 0.707466 0.188778
vt 0.838757 0.236651
vt 0.772905 0.241471
vt 0.905705 0.227944
vt 0.024735 0.622769
vt 0.093251 0.640001
vt 0.159637 0.649375
vt 0.225242 0.653922
vt 0.290633 0.655040
vt 0.356097 0.653248
vt 0.421949 0.648428
vt 0.488897 0.639720
vt 0.441543 0.210992
vt 0.510059 0.228225
vt 0.576445 0.237598
vt 0.642050 0.242146
vt 0.707441 0.243264
vt 0.843452 0.297053
vt 0.775165 0.297172
vt 0.913462 0.297479
vt 0.010342 0.707827
vt 0.084698 0.709337
vt 0.154709 0.709763
vt 0.222995 0.709644
vt 0.290676 0.709296
vt 0.358358 0.708948
vt 0.426644 0.708829
vt 0.496655 0.709255
vt 0.427150 0.296051
vt 0.501506 0.297560
vt 0.571516 0.297986
vt 0.639802 0.297867
vt 0.707484 0.297519
vt 0.838523 0.357441
vt 0.772918 0.352893
vt 0.904909 0.366814
vt 0.022618 0.793663
vt 0.092455 0.778872
vt 0.159404 0.770165
vt 0.225255 0.765345
vt 0.290719 0.763552
vt 0.356111 0.764670
vt 0.421715 0.769217
vt 0.488102 0.778591
vt 0.439426 0.381887
vt 0.509263 0.367095
vt 0.576212 0.358388
vt 0.642063 0.353568
vt 0.707527 0.351775
vt 0.823736 0.416915
vt 0.765957 0.408609
vt 0.880125 0.433032
vt 0.061006 0.872417
vt 0.116681 0.845655
vt 0.173943 0.829708
vt 0.232121 0.821022
vt 0.290694 0.818037
vt 0.349149 0.820385
vt 0.406928 0.828692
vt 0.463318 0.844809
vt 0.477814 0.460640
vt 0.533489 0.433879
vt 0.590751 0.417932
vt 0.648929 0.409246
vt 0.707502 0.406261
vt 0.798351 0.474560
vt 0.753747 0.464477
vt 0.839120 0.493069
vt 0.122686 0.936310
vt 0.157668 0.906460
vt 0.199173 0.887514
vt 0.244137 0.876886
vt 0.290593 0.873255
vt 0.336939 0.876253
vt 0.381543 0.886336
vt 0.422312 0.904845
vt 0.539494 0.524534
vt 0.574476 0.494683
vt 0.615980 0.475738
vt 0.660945 0.465109
vt 0.707400 0.461478
vt 0.760829 0.529443
vt 0.735200 0.521175
vt 0.781855 0.543528
vt 0.202208 0.978197
vt 0.215820 0.957349
vt 0.236989 0.942510
vt 0.262706 0.933594
vt 0.290561 0.930427
vt 0.318392 0.932952
vt 0.344021 0.941219
vt 0.365048 0.955304
vt 0.619015 0.566420
vt 0.632628 0.545573
vt 0.653797 0.530733
vt 0.679513 0.521818
vt 0.707369 0.518651
vt 0.706904 0.013615
vt 0.708064 0.581424
vt 0.378633 0.975090
vt 0.291256 0.993201
vt 0.795440 0.563314
vt 0.290096 0.425392
vt 0.619527 0.031725
vt 0.202720 0.443502
vt 0.455952 0.934147
vt 0.872760 0.522371
vt 0.517093 0.872560
vt 0.933901 0.460783
vt 0.556618 0.795824
vt 0.973425 0.384047
vt 0.571010 0.710765
vt 0.987818 0.298989
vt 0.558735 0.624929
vt 0.975542 0.213153
vt 0.520347 0.546176
vt 0.937155 0.134399
vt 0.458666 0.482282
vt 0.875474 0.070506
vn -0.135197 -0.935515 -0.326394
vn -0.247095 -0.936957 -0.247095
vn -0.443352 -0.779024 -0.443352
vn -0.239941 -0.779024 -0.579267
vn -0.326393 -0.935516 -0.135197
vn -0.579267 -0.779024 -0.239941
vn -0.349445 -0.936957 -0.000000
vn -0.626995 -0.779024 -0.000001
vn -0.326394 -0.935515 0.135197
vn -0.579268 -0.779023 0.239940
vn -0.247095 -0.936957 0.247095
vn -0.443352 -0.779024 0.443352
vn -0.135197 -0.935515 0.326394
vn -0.239941 -0.779024 0.579267
vn -0.000000 -0.936957 0.349444
vn -0.000000 -0.779023 0.626995
vn 0.135197 -0.935516 0.326393
vn 0.239941 -0.779024 0.579267
vn 0.247095 -0.936957 0.247095
vn 0.443352 -0.779023 0.443353
vn 0.326394 -0.935515 0.135197
vn 0.579268 -0.779024 0.239941
vn 0.349445 -0.936957 0.000000
vn 0.626994 -0.779024 0.000000
vn 0.326393 -0.935516 -0.135197
vn 0.579268 -0.779023 -0.239941
vn 0.247095 -0.936957 -0.247095
vn 0.443352 -0.779023 -0.443353
vn 0.135197 -0.935516 -0.326393
vn 0.239941 -0.779024 -0.579267
vn 0.000000 -0.936957 -0.349445
vn 0.000000 -0.779024 -0.626995
vn -0.584111 -0.563585 -0.584112
vn -0.316119 -0.563585 -0.763178
vn -0.763178 -0.563586 -0.316119
vn -0.826058 -0.563585 -0.000000
vn -0.763178 -0.563585 0.316119
vn -0.584111 -0.563586 0.584111
vn -0.316119 -0.563585 0.763178
vn -0.000000 -0.563585 0.826058
vn 0.316119 -0.563585 0.763178
vn 0.584111 -0.563585 0.584112
vn 0.763178 -0.563585 0.316119
vn 0.826058 -0.563585 0.000000
vn 0.763178 -0.563585 -0.316119
vn 0.584111 -0.563585 -0.584112
vn 0.316119 -0.563585 -0.763178
vn 0.000000 -0.563585 -0.826058
vn -0.675542 -0.295438 -0.675544
vn -0.365601 -0.295438 -0.882639
vn -0.882639 -0.295438 -0.365602
vn -0.955362 -0.295437 -0.000000
vn -0.882639 -0.295438 0.365601
vn -0.675543 -0.295438 0.675543
vn -0.365602 -0.295438 0.882639
vn -0.000000 -0.295438 0.955362
vn 0.365601 -0.295438 0.882640
vn 0.675542 -0.295438 0.675544
vn 0.882639 -0.295438 0.365602
vn 0.955362 -0.295438 -0.000000
vn 0.882639 -0.295439 -0.365601
vn 0.675543 -0.295439 -0.675543
vn 0.365601 -0.295438 -0.882639
vn 0.000000 -0.295438 -0.955362
vn -0.707106 -0.000000 -0.707108
vn -0.382683 -0.000000 -0.923880
vn -0.923880 -0.000000 -0.382683
vn -1.000000 0.000000 -0.000000
vn -0.923880 -0.000000 0.382683
vn -0.707107 -0.000000 0.707107
vn -0.382684 -0.000000 0.923879
vn -0.000000 0.000000 1.000000
vn 0.382684 0.000000 0.923880
vn 0.707106 -0.000000 0.707107
vn 0.923880 -0.000000 0.382683
vn 1.000000 0.000000 0.000000
vn 0.923880 0.000000 -0.382683
vn 0.707107 0.000000 -0.707107
vn 0.382683 0.000000 -0.923880
vn 0.000000 0.000000 -1.000000
vn -0.675542 0.295438 -0.675544
vn -0.365601 0.295438 -0.882639
vn -0.882639 0.295438 -0.365602
vn -0.955362 0.295437 -0.000000
vn -0.882639 0.295438 0.365601
vn -0.675543 0.295438 0.675543
vn -0.365602 0.295438 0.882639
vn -0.000000 0.295438 0.955362
vn 0.365601 0.295438 0.882639
vn 0.675542 0.295438 0.675544
vn 0.882639 0.295438 0.365601
vn 0.955362 0.295438 -0.000000
vn 0.882639 0.295439 -0.365601
vn 0.675543 0.295439 -0.675543
vn 0.365601 0.295438 -0.882639
vn 0.000000 0.295438 -0.955362
vn -0.584111 0.563585 -0.584112
vn -0.316119 0.563585 -0.763178
vn -0.763178 0.563586 -0.316119
vn -0.826058 0.563585 -0.000000
vn -0.763178 0.563585 0.316119
vn -0.584111 0.563586 0.584111
vn -0.316119 0.563585 0.763178
vn -0.000000 0.563585 0.826058
vn 0.316119 0.563585 0.763178
vn 0.584111 0.563585 0.584111
vn 0.763178 0.563585 0.316119
vn 0.826058 0.563585 0.000000
vn 0.763178 0.563585 -0.316119
vn 0.584111 0.563585 -0.584111
vn 0.316119 0.563585 -0.763178
vn 0.000000 0.563585 -0.826058
vn -0.443352 0.779023 -0.443353
vn -0.239941 0.779023 -0.579268
vn -0.579268 0.779024 -0.239941
vn -0.626995 0.779023 -0.000000
vn -0.579269 0.779023 0.239940
vn -0.443352 0.779023 0.443353
vn -0.239941 0.779024 0.579267
vn -0.000000 0.779023 0.626995
vn 0.239941 0.779023 0.579268
vn 0.443353 0.779023 0.443353
vn 0.579268 0.779023 0.239941
vn 0.626995 0.779023 0.000001
vn 0.579268 0.779023 -0.239941
vn 0.443353 0.779023 -0.443354
vn 0.239941 0.779023 -0.579268
vn 0.000000 0.779023 -0.626995
vn -0.247095 0.936957 -0.247095
vn -0.135197 0.935515 -0.326395
vn -0.326393 0.935516 -0.135197
vn -0.349445 0.936957 -0.000001
vn -0.326394 0.935515 0.135197
vn -0.247095 0.936957 0.247095
vn -0.135197 0.935516 0.326393
vn -0.000000 0.936957 0.349444
vn 0.135197 0.935515 0.326394
vn 0.247095 0.936957 0.247095
vn 0.326394 0.935515 0.135197
vn 0.349445 0.936957 0.000001
vn 0.326393 0.935516 -0.135196
vn 0.247095 0.936957 -0.247095
vn 0.135197 0.935516 -0.326393
vn 0.000000 0.936957 -0.349444
vn 0.000000 -1.000000 -0.000000
vn 0.000000 1.000000 -0.000000
s 1
g Bomb
usemtl initialShadingGroup
f 1/1/1 2/2/2 18/3/3 17/4/4
f 2/2/2 3/5/5 19/6/6 18/3/3
f 3/5/5 4/7/7 20/166/8 19/6/6
f 4/152/7 5/9/9 21/10/10 20/8/8
f 5/9/9 6/11/11 22/12/12 21/10/10
f 6/11/11 7/13/13 23/14/14 22/12/12
f 7/13/13 8/15/15 24/16/16 23/14/14
f 8/15/15 9/17/17 25/18/18 24/16/16
f 9/17/17 10/19/19 26/20/20 25/18/18
f 10/19/19 11/21/21 27/22/22 26/20/20
f 11/21/21 12/23/23 28/165/24 27/22/22
f 12/151/23 13/25/25 29/26/26 28/24/24
f 13/25/25 14/27/27 30/28/28 29/26/26
f 14/27/27 15/29/29 31/30/30 30/28/28
f 15/29/29 16/31/31 32/32/32 31/30/30
f 16/31/31 1/1/1 17/4/4 32/32/32
f 17/4/4 18/3/3 34/33/33 33/34/34
f 18/3/3 19/6/6 35/35/35 34/33/33
f 19/6/6 20/166/8 36/164/36 35/35/35
f 20/8/8 21/10/10 37/37/37 36/36/36
f 21/10/10 22/12/12 38/38/38 37/37/37
f 22/12/12 23/14/14 39/39/39 38/38/38
f 23/14/14 24/16/16 40/40/40 39/39/39
f 24/16/16 25/18/18 41/41/41 40/40/40
f 25/18/18 26/20/20 42/42/42 41/41/41
f 26/20/20 27/22/22 43/43/43 42/42/42
f 27/22/22 28/165/24 44/163/44 43/43/43
f 28/24/24 29/26/26 45/45/45 44/44/44
f 29/26/26 30/28/28 46/46/46 45/45/45
f 30/28/28 31/30/30 47/47/47 46/46/46
f 31/30/30 32/32/32 48/48/48 47/47/47
f 32/32/32 17/4/4 33/34/34 48/48/48
f 33/34/34 34/33/33 50/49/49 49/50/50
f 34/33/33 35/35/35 51/51/51 50/49/49
f 35/35/35 36/164/36 52/162/52 51/51/51
f 36/36/36 37/37/37 53/53/53 52/52/52
f 37/37/37 38/38/38 54/54/54 53/53/53
f 38/38/38 39/39/39 55/55/55 54/54/54
f 39/39/39 40/40/40 56/56/56 55/55/55
f 40/40/40 41/41/41 57/57/57 56/56/56
f 41/41/41 42/42/42 58/58/58 57/57/57
f 42/42/42 43/43/43 59/59/59 58/58/58
f 43/43/43 44/163/44 60/161/60 59/59/59
f 44/44/44 45/45/45 61/61/61 60/60/60
f 45/45/45 46/46/46 62/62/62 61/61/61
f 46/46/46 47/47/47 63/63/63 62/62/62
f 47/47/47 48/48/48 64/64/64 63/63/63
f 48/48/48 33/34/34 49/50/50 64/64/64
f 49/50/50 50/49/49 66/65/65 65/66/66
f 50/49/49 51/51/51 67/67/67 66/65/65
f 51/51/51 52/162/52 68/160/68 67/67/67
f 52/52/52 53/53/53 69/69/69 68/68/68
f 53/53/53 54/54/54 70/70/70 69/69/69
f 54/54/54 55/55/55 71/71/71 70/70/70
f 55/55/55 56/56/56 72/72/72 71/71/71
f 56/56/56 57/57/57 73/73/73 72/72/72
f 57/57/57 58/58/58 74/74/74 73/73/73
f 58/58/58 59/59/59 75/75/75 74/74/74
f 59/59/59 60/161/60 76/159/76 75/75/75
f 60/60/60 61/61/61 77/77/77 76/76/76
f 61/61/61 62/62/62 78/78/78 77/77/77
f 62/62/62 63/63/63 79/79/79 78/78/78
f 63/63/63 64/64/64 80/80/80 79/79/79
f 64/64/64 49/50/50 65/66/66 80/80/80
f 65/66/66 66/65/65 82/81/81 81/82/82
f 66/65/65 67/67/67 83/83/83 82/81/81
f 67/67/67 68/160/68 84/158/84 83/83/83
f 68/68/68 69/69/69 85/85/85 84/84/84
f 69/69/69 70/70/70 86/86/86 85/85/85
f 70/70/70 71/71/71 87/87/87 86/86/86
f 71/71/71 72/72/72 88/88/88 87/87/87
f 72/72/72 73/73/73 89/89/89 88/88/88
f 73/73/73 74/74/74 90/90/90 89/89/89
f 74/74/74 75/75/75 91/91/91 90/90/90
f 75/75/75 76/159/76 92/157/92 91/91/91
f 76/76/76 77/77/77 93/93/93 92/92/92
f 77/77/77 78/78/78 94/94/94 93/93/93
f 78/78/78 79/79/79 95/95/95 94/94/94
f 79/79/79 80/80/80 96/96/96 95/95/95
f 80/80/80 65/66/66 81/82/82 96/96/96
f 81/82/82 82/81/81 98/97/97 97/98/98
f 82/81/81 83/83/83 99/99/99 98/97/97
f 83/83/83 84/158/84 100/156/100 99/99/99
f 84/84/84 85/85/85 101/101/101 100/100/100
f 85/85/85 86/86/86 102/102/102 101/101/101
f 86/86/86 87/87/87 103/103/103 102/102/102
f 87/87/87 88/88/88 104/104/104 103/103/103
f 88/88/88 89/89/89 105/105/105 104/104/104
f 89/89/89 90/90/90 106/106/106 105/105/105
f 90/90/90 91/91/91 107/107/107 106/106/106
f 91/91/91 92/157/92 108/155/108 107/107/107
f 92/92/92 93/93/93 109/109/109 108/108/108
f 93/93/93 94/94/94 110/110/110 109/109/109
f 94/94/94 95/95/95 111/111/111 110/110/110
f 95/95/95 96/96/96 112/112/112 111/111/111
f 96/96/96 81/82/82 97/98/98 112/112/112
f 97/98/98 98/97/97 114/113/113 113/114/114
f 98/97/97 99/99/99 115/115/115 114/113/113
f 99/99/99 100/156/100 116/154/116 115/115/115
f 100/100/100 101/101/101 117/117/117 116/116/116
f 101/101/101 102/102/102 118/118/118 117/117/117
f 102/102/102 103/103/103 119/119/119 118/118/118
f 103/103/103 104/104/104 120/120/120 119/119/119
f 104/104/104 105/105/105 121/121/121 120/120/120
f 105/105/105 106/106/106 122/122/122 121/121/121
f 106/106/106 107/107/107 123/123/123 122/122/122
f 107/107/107 108/155/108 124/153/124 123/123/123
f 108/108/108 109/109/109 125/125/125 124/124/124
f 109/109/109 110/110/110 126/126/126 125/125/125
f 110/110/110 111/111/111 127/127/127 126/126/126
f 111/111/111 112/112/112 128/128/128 127/127/127
f 112/112/112 97/98/98 113/114/114 128/128/128
f 113/114/114 114/113/113 130/129/129 129/130/130
f 114/113/113 115/115/115 131/131/131 130/129/129
f 115/115/115 116/154/116 132/149/132 131/131/131
f 116/116/116 117/117/117 133/133/133 132/132/132
f 117/117/117 118/118/118 134/134/134 133/133/133
f 118/118/118 119/119/119 135/135/135 134/134/134
f 119/119/119 120/120/120 136/136/136 135/135/135
f 120/120/120 121/121/121 137/137/137 136/136/136
f 121/121/121 122/122/122 138/138/138 137/137/137
f 122/122/122 123/123/123 139/139/139 138/138/138
f 123/123/123 124/153/124 140/147/140 139/139/139
f 124/124/124 125/125/125 141/141/141 140/140/140
f 125/125/125 126/126/126 142/142/142 141/141/141
f 126/126/126 127/127/127 143/143/143 142/142/142
f 127/127/127 128/128/128 144/144/144 143/143/143
f 128/128/128 113/114/114 129/130/130 144/144/144
f 3/5/5 2/2/2 145/145/145 4/7/7
f 5/9/9 4/152/7 145/150/145 6/11/11
f 7/13/13 6/11/11 145/150/145 8/15/15
f 9/17/17 8/15/15 145/150/145 10/19/19
f 11/21/21 10/19/19 145/150/145 12/23/23
f 13/25/25 12/151/23 145/145/145 14/27/27
f 15/29/29 14/27/27 145/145/145 16/31/31
f 1/1/1 16/31/31 145/145/145 2/2/2
f 146/146/146 130/129/129 131/131/131 132/149/132
f 146/148/146 132/132/132 133/133/133 134/134/134
f 146/148/146 134/134/134 135/135/135 136/136/136
f 146/148/146 136/136/136 137/137/137 138/138/138
f 146/148/146 138/138/138 139/139/139 140/147/140
f 146/146/146 140/140/140 141/141/141 142/142/142
f 146/146/146 142/142/142 143/143/143 144/144/144
f 146/146/146 144/144/144 129/130/130 130/129/129
