# This file uses centimeters as units for non-parametric coordinates.

mtllib FB_Pedestal_Prop.mtl
g default
v -77.324004 16.661361 47.273151
v 77.324010 16.661368 47.273139
v -0.000016 17.872842 -95.744675
v 0.000006 14.481168 91.961222
v 83.262994 20.129326 -47.542906
v -83.263006 20.129324 -47.542874
v -0.000003 2.677671 0.218876
v -94.855384 6.677840 0.167708
v -51.066037 13.360348 69.003433
v 0.000001 -0.802602 48.294410
v -40.863951 3.488014 -23.634880
v -42.509185 -0.378772 24.833667
v 51.066037 13.360348 69.003433
v 94.855384 6.677842 0.167683
v 40.863948 3.488031 -23.634896
v 42.509177 -0.378765 24.833653
v 47.817239 18.062562 -82.981058
v -47.817271 18.062525 -82.981052
v -0.000010 3.725500 -47.999890
v -63.065349 12.117115 -35.638868
v -91.835523 14.467539 -24.472352
v -66.917724 0.564213 12.282456
v -39.923334 2.630943 0.716391
v -64.273718 6.187747 -11.558245
v -88.541913 8.840991 24.780764
v -67.497408 16.169348 61.204857
v -46.496958 4.411172 50.083312
v -64.057886 8.363838 38.049527
v -28.120903 10.571189 80.438387
v 0.000002 7.123068 70.778526
v -24.886944 0.535078 36.747842
v -24.164421 3.351906 60.762703
v -0.000001 5.276761 24.434695
v -20.965429 -1.389975 -11.594630
v -22.843598 -1.060030 12.860708
v 28.120914 10.571191 80.438387
v 46.496961 4.411185 50.083289
v 24.886944 0.534060 36.747877
v 24.164427 3.351914 60.762703
v 67.497408 16.169350 61.204845
v 88.541930 8.840997 24.780747
v 66.917724 0.564211 12.282439
v 64.057886 8.363840 38.049513
v 91.835506 14.467540 -24.472375
v 63.065327 12.117119 -35.638885
v 39.923334 2.630943 0.716378
v 64.273695 6.187754 -11.558264
v 20.965419 -1.389975 -11.594637
v 22.843597 -1.060032 12.860702
v 67.751766 21.370938 -67.499313
v 23.323047 2.175032 -65.684781
v 19.765456 -1.460976 -35.951078
v 42.751059 6.712559 -50.752747
v 24.758177 15.508318 -92.585436
v -24.758211 15.508197 -92.585430
v -23.323066 2.174851 -65.684776
v -0.000013 11.101276 -77.489644
v -67.751800 21.370938 -67.499290
v -19.765469 -1.460983 -35.951072
v -42.751082 6.712501 -50.752735
v -0.000006 2.525071 -23.897511
v -41.387682 62.875487 0.147193
v -43.095056 64.931447 -23.834649
v -64.522391 65.029281 -35.786513
v -66.163962 65.463787 -11.865401
v -83.279296 60.454443 -47.665361
v -93.402726 58.440928 -24.616584
v -96.251953 57.651743 0.085224
v -67.290848 62.937414 11.906510
v -40.265104 59.688175 20.137234
v -94.597919 57.838036 24.759882
v -67.601817 60.576848 33.921260
v -84.879695 58.517427 46.832796
v -67.743960 56.500656 62.822218
v -48.084172 52.645980 77.335630
v -44.451132 58.373141 42.497018
v -25.167139 49.836084 90.621509
v -22.212502 60.439373 56.900635
v 0.000006 51.793226 95.658311
v 0.000003 59.775358 71.707678
v 0.000001 65.796892 47.650405
v -21.014702 62.146282 32.061047
v -0.000001 62.992956 23.982079
v -21.053027 60.863992 12.083663
v -0.000003 62.521140 0.018190
v -20.931815 61.639868 -11.842651
v 21.014702 62.146282 32.061035
v 22.212508 60.439366 56.900635
v 25.167147 49.836090 90.621509
v 48.084183 52.645976 77.335630
v 44.451135 58.373147 42.497001
v 40.265104 59.688175 20.137222
v 67.743972 56.500650 62.822207
v 67.601829 60.576848 33.921246
v 84.879695 58.517427 46.832773
v 94.597941 57.838029 24.759865
v 96.251953 57.651736 0.085200
v 67.290848 62.937421 11.906491
v 93.402715 58.440948 -24.616613
v 66.163939 65.463794 -11.865421
v 83.279284 60.454436 -47.665395
v 64.522368 65.029281 -35.786533
v 43.095053 64.930723 -23.834660
v 41.387673 62.874776 0.147179
v 20.931806 61.639868 -11.842659
v 21.053027 60.863992 12.083655
v 20.294569 62.051843 -35.904108
v 42.970748 63.315336 -50.637715
v 67.640640 61.957597 -67.556500
v 47.829141 59.125123 -82.865091
v 23.776731 59.663271 -65.444769
v -0.000008 61.801298 -47.864982
v 24.758177 59.244632 -92.433315
v -0.000013 63.942095 -77.330601
v -0.000016 63.081694 -95.663323
v -24.758211 59.242412 -92.433298
v -47.829164 59.125356 -82.865091
v -23.776755 59.663497 -65.444758
v -67.640663 61.957597 -67.556478
v -42.970771 63.315362 -50.637704
v -20.294585 62.051830 -35.904102
v -0.000006 61.932208 -23.913968
v 0.000006 39.706872 95.530542
v -26.313410 36.582667 86.223147
v -49.487857 39.447214 72.775420
v -68.068705 39.299080 63.114709
v -82.259356 43.015355 47.097875
v -93.050807 38.830488 25.092338
v -97.089656 36.202998 0.178094
v -93.381710 41.210077 -24.805937
v -83.694475 45.214259 -48.157826
v -67.887016 47.000719 -68.335476
v -47.815503 43.495217 -83.935992
v -24.457214 42.229000 -93.647055
v -0.000016 45.916261 -96.879868
v 24.457180 42.228714 -93.647066
v 47.815469 43.497134 -83.936004
v 67.886993 47.000673 -68.335498
v 83.694475 45.214255 -48.157860
v 93.381693 41.210080 -24.805966
v 97.089656 36.202998 0.178070
v 93.050824 38.830484 25.092321
v 82.259373 43.015358 47.097852
v 68.068728 39.299080 63.114703
v 49.487874 39.447207 72.775420
v 26.313425 36.582673 86.223147
v 0.000005 25.507821 92.120869
v -27.693017 22.893044 80.169337
v -50.534458 25.603944 67.553313
v -67.212569 26.197270 60.408731
v -77.581828 28.256913 46.336236
v -89.115627 18.920393 24.732063
v -95.192621 15.827777 0.179971
v -92.123822 22.876981 -24.419252
v -83.240581 28.271707 -47.446111
v -67.711113 30.011187 -67.363094
v -47.833760 26.508140 -82.806757
v -24.814957 24.079338 -92.393922
v -0.000016 27.199197 -95.554005
v 24.814923 24.075436 -92.393934
v 47.833726 26.508077 -82.806757
v 67.711084 30.011154 -67.363117
v 83.240581 28.271707 -47.446145
v 92.123805 22.876989 -24.419278
v 95.192610 15.827779 0.179946
v 89.115633 18.920393 24.732046
v 77.581828 28.256913 46.336222
v 67.212575 26.197270 60.408725
v 50.534475 25.603951 67.553313
v 27.693026 22.893050 80.169348
vt 0.169264 0.376163
vt 0.204183 0.349012
vt 0.210723 0.362975
vt 0.175521 0.389717
vt 0.238005 0.318076
vt 0.244921 0.333359
vt 0.280643 0.303181
vt 0.287911 0.320175
vt 0.328170 0.297458
vt 0.335362 0.317536
vt 0.356092 0.283864
vt 0.362998 0.300918
vt 0.383685 0.265758
vt 0.392156 0.286563
vt 0.426803 0.240685
vt 0.436657 0.261023
vt 0.480273 0.224414
vt 0.488590 0.242840
vt 0.527845 0.195075
vt 0.536579 0.215918
vt 0.575169 0.179324
vt 0.585170 0.199438
vt 0.607001 0.170605
vt 0.615223 0.187065
vt 0.635664 0.158657
vt 0.645966 0.177331
vt 0.671394 0.126798
vt 0.679331 0.143489
vt 0.710769 0.104673
vt 0.717656 0.119969
vt 0.756342 0.099770
vt 0.762488 0.113911
vt 0.799803 0.091541
vt 0.805828 0.105199
vt 0.840936 0.075471
vt 0.847344 0.089958
vt 0.878655 0.051790
vt 0.884864 0.065976
vt 0.916517 0.029562
vt 0.922813 0.043953
vt 0.007583 0.444606
vt 0.014618 0.460190
vt 0.045578 0.422699
vt 0.052210 0.436946
vt 0.087293 0.409007
vt 0.093825 0.423046
vt 0.130004 0.396382
vt 0.136630 0.410771
vt 0.466223 0.301872
vt 0.452433 0.281438
vt 0.499300 0.266567
vt 0.508417 0.286763
vt 0.425443 0.325932
vt 0.409352 0.306647
vt 0.388186 0.350504
vt 0.375197 0.321766
vt 0.352969 0.370457
vt 0.343678 0.343469
vt 0.314991 0.386234
vt 0.301785 0.353961
vt 0.276306 0.403321
vt 0.260263 0.367419
vt 0.237751 0.422312
vt 0.224458 0.393653
vt 0.199524 0.443618
vt 0.187676 0.418310
vt 0.160429 0.464289
vt 0.148547 0.439566
vt 0.118375 0.477575
vt 0.105719 0.451847
vt 0.078629 0.495751
vt 0.064842 0.467752
vt 0.271224 0.836631
vt 0.337105 0.841321
vt 0.369942 0.900188
vt 0.304225 0.904696
vt 0.304158 0.780435
vt 0.238429 0.780770
vt 0.370264 0.778683
vt 0.410742 0.840981
vt 0.402572 0.951719
vt 0.339252 0.979531
vt 0.238916 0.907792
vt 0.216305 0.833547
vt 0.337324 0.722931
vt 0.183547 0.780660
vt 0.205738 0.722931
vt 0.271577 0.722931
vt 0.403119 0.722931
vt 0.451420 0.788252
vt 0.457217 0.908753
vt 0.271394 0.987354
vt 0.154877 0.845044
vt 0.178437 0.908650
vt 0.304158 0.665427
vt 0.370264 0.667178
vt 0.115306 0.783957
vt 0.140721 0.722931
vt 0.238429 0.665092
vt 0.451420 0.657609
vt 0.484068 0.722931
vt 0.499276 0.854327
vt 0.203603 0.982816
vt 0.099040 0.909039
vt 0.059164 0.855027
vt 0.337105 0.604540
vt 0.410742 0.604881
vt 0.022665 0.792072
vt 0.074628 0.722931
vt 0.183547 0.665201
vt 0.271224 0.609230
vt 0.499276 0.591534
vt 0.525561 0.654915
vt 0.525561 0.790947
vt 0.142966 0.956111
vt 0.369942 0.545673
vt 0.457217 0.537108
vt 0.008832 0.722931
vt 0.115306 0.661904
vt 0.216305 0.612314
vt 0.304225 0.541165
vt 0.534437 0.722931
vt 0.402572 0.494142
vt 0.022665 0.653789
vt 0.154877 0.600817
vt 0.238916 0.538063
vt 0.339252 0.466330
vt 0.059164 0.590828
vt 0.178437 0.537211
vt 0.271394 0.458507
vt 0.099040 0.536822
vt 0.203603 0.463045
vt 0.142966 0.489750
vt 0.653907 0.432920
vt 0.632397 0.361159
vt 0.682715 0.318083
vt 0.700707 0.385046
vt 0.579844 0.400919
vt 0.600914 0.473317
vt 0.606095 0.281785
vt 0.668309 0.255307
vt 0.751237 0.330058
vt 0.765128 0.403869
vt 0.714276 0.447481
vt 0.661943 0.489930
vt 0.551238 0.322306
vt 0.610432 0.530976
vt 0.543013 0.513057
vt 0.533846 0.455295
vt 0.737418 0.248553
vt 0.817721 0.340607
vt 0.826499 0.420537
vt 0.778419 0.466065
vt 0.682005 0.557361
vt 0.730310 0.511620
vt 0.514067 0.381390
vt 0.634411 0.602429
vt 0.563893 0.577778
vt 0.481158 0.492174
vt 0.496638 0.539683
vt 0.805955 0.259076
vt 0.885324 0.364835
vt 0.905832 0.433657
vt 0.839800 0.482726
vt 0.793479 0.531125
vt 0.748244 0.581068
vt 0.490389 0.446255
vt 0.704450 0.630265
vt 0.589560 0.644900
vt 0.517170 0.607053
vt 0.868671 0.286932
vt 0.962203 0.385707
vt 0.986602 0.449849
vt 0.912744 0.500619
vt 0.855084 0.548076
vt 0.804731 0.592199
vt 0.761506 0.642911
vt 0.655183 0.674185
vt 0.547302 0.684915
vt 0.921740 0.330351
vt 0.993374 0.518856
vt 0.920966 0.569689
vt 0.875212 0.617585
vt 0.832649 0.667896
vt 0.718671 0.698561
vt 0.623406 0.719243
vt 0.982864 0.587494
vt 0.953036 0.648174
vt 0.909586 0.700741
vt 0.775846 0.710860
vt 0.689558 0.743416
vt 0.848565 0.734637
vt 0.736152 0.761462
vt 0.782507 0.754748
vt 0.041684 0.520151
vt 0.028736 0.491467
vt 0.909519 0.120455
vt 0.898598 0.093950
vt 0.871739 0.143207
vt 0.861057 0.117943
vt 0.830376 0.158855
vt 0.819233 0.133229
vt 0.789112 0.173431
vt 0.776410 0.144504
vt 0.749366 0.189784
vt 0.733052 0.154004
vt 0.710962 0.207495
vt 0.695493 0.176243
vt 0.674009 0.225542
vt 0.659914 0.200722
vt 0.635750 0.238755
vt 0.622788 0.210005
vt 0.592677 0.250444
vt 0.588857 0.225619
vt 0.547659 0.265113
vt 0.541455 0.241254
vt 0.958079 0.015557
vt 0.965114 0.031142
vt 0.979232 0.062418
vt 0.992179 0.091102
vt 0.949444 0.102674
vt 0.937563 0.073810
vn 0.056183 0.995360 0.078120
vn 0.062055 0.998073 0.000444
vn -0.085960 0.995380 -0.042777
vn -0.108420 0.993137 0.043867
vn -0.152966 0.986535 -0.057876
vn -0.232632 0.972519 0.009457
vn -0.207574 0.977018 0.048465
vn -0.074580 0.994101 0.078744
vn -0.001420 0.996845 0.079358
vn -0.135964 0.989059 0.057243
vn -0.014927 0.995490 0.093681
vn -0.060557 0.995137 0.077691
vn 0.031761 0.989763 0.139139
vn -0.065989 0.977451 0.200589
vn -0.029282 0.990991 0.130688
vn -0.136291 0.955144 0.262916
vn -0.142330 0.970886 0.192671
vn -0.000000 0.954038 0.299687
vn -0.000000 0.964965 0.262378
vn 0.000000 0.996204 0.087054
vn -0.111439 0.993585 0.019247
vn -0.000000 0.998324 -0.057874
vn -0.034859 0.999336 0.010573
vn -0.000000 0.999991 -0.004136
vn 0.041518 0.998903 0.021659
vn 0.111440 0.993585 0.019244
vn 0.142330 0.970886 0.192671
vn 0.136291 0.955144 0.262916
vn 0.065989 0.977450 0.200589
vn 0.029282 0.990991 0.130688
vn 0.001417 0.996846 0.079349
vn -0.031761 0.989763 0.139139
vn 0.014927 0.995490 0.093681
vn 0.060557 0.995137 0.077690
vn 0.135965 0.989058 0.057243
vn 0.207574 0.977018 0.048466
vn 0.074575 0.994102 0.078740
vn 0.232632 0.972519 0.009457
vn 0.108408 0.993138 0.043864
vn 0.152966 0.986535 -0.057876
vn 0.085955 0.995380 -0.042772
vn -0.062058 0.998072 0.000453
vn -0.056184 0.995360 0.078113
vn -0.041502 0.998904 0.021659
vn 0.034868 0.999336 0.010568
vn -0.048380 0.998157 -0.036630
vn -0.031321 0.994909 -0.095785
vn 0.015109 0.993692 -0.111124
vn -0.005914 0.995373 -0.095908
vn 0.007302 0.998984 -0.044469
vn 0.000002 0.999952 -0.009765
vn 0.081399 0.996518 -0.018059
vn -0.000006 0.999901 0.014097
vn -0.000045 0.998900 -0.046881
vn -0.081402 0.996516 -0.018134
vn 0.005915 0.995370 -0.095934
vn -0.007297 0.998983 -0.044494
vn -0.015112 0.993692 -0.111120
vn 0.031319 0.994909 -0.095789
vn 0.048385 0.998157 -0.036632
vn 0.000003 0.999994 -0.003348
vn -0.110150 -0.988866 -0.100055
vn -0.128638 -0.967156 -0.219228
vn -0.251156 -0.946254 -0.203776
vn -0.208311 -0.974444 -0.084053
vn -0.155272 -0.949187 -0.273740
vn -0.258259 -0.934783 -0.243892
vn -0.141854 -0.989817 -0.011838
vn -0.158563 -0.978715 -0.130286
vn -0.111418 -0.992474 0.050803
vn -0.273117 -0.923825 0.268245
vn -0.241404 -0.938246 0.247828
vn -0.335360 -0.890421 0.307708
vn -0.306066 -0.883509 0.354592
vn -0.223372 -0.943523 0.244682
vn -0.283093 -0.906272 0.313894
vn -0.097114 -0.958442 0.268248
vn -0.097262 -0.936867 0.335886
vn -0.000002 -0.955137 0.296163
vn 0.000000 -0.941853 0.336027
vn 0.001925 -0.998230 0.059446
vn -0.000009 -0.993677 0.112275
vn 0.050191 -0.998702 -0.008690
vn -0.000010 -0.999408 -0.034410
vn -0.034059 -0.999362 0.010775
vn -0.000000 -0.998827 0.048415
vn -0.001924 -0.998230 0.059447
vn 0.097116 -0.958440 0.268257
vn 0.097263 -0.936867 0.335886
vn 0.223382 -0.943519 0.244687
vn 0.283092 -0.906272 0.313893
vn 0.111428 -0.992473 0.050800
vn 0.273117 -0.923825 0.268245
vn 0.335360 -0.890421 0.307708
vn 0.241404 -0.938246 0.247828
vn 0.306067 -0.883509 0.354592
vn 0.141854 -0.989817 -0.011838
vn 0.158563 -0.978715 -0.130286
vn 0.128638 -0.967156 -0.219228
vn 0.155272 -0.949188 -0.273740
vn 0.251155 -0.946254 -0.203776
vn 0.258258 -0.934783 -0.243892
vn 0.110152 -0.988865 -0.100059
vn 0.208311 -0.974444 -0.084054
vn -0.050194 -0.998702 -0.008702
vn 0.034059 -0.999362 0.010775
vn 0.087916 -0.993907 -0.066486
vn 0.291283 -0.939571 -0.179890
vn 0.346716 -0.907718 -0.236298
vn 0.130383 -0.951987 -0.276985
vn 0.281958 -0.904626 -0.319612
vn 0.000002 -0.989747 -0.142829
vn 0.000002 -0.937912 -0.346875
vn 0.065730 -0.903496 -0.423526
vn -0.065729 -0.903495 -0.423528
vn 0.000002 -0.937574 -0.347786
vn -0.130382 -0.951988 -0.276984
vn -0.281960 -0.904625 -0.319612
vn -0.291285 -0.939571 -0.179889
vn -0.346719 -0.907717 -0.236298
vn -0.087915 -0.993907 -0.066484
vn 0.000000 -0.999917 -0.012867
vn -0.874886 -0.000708 -0.484328
vn -0.973347 -0.025338 -0.227935
vn -0.966221 -0.057025 -0.251326
vn -0.867978 -0.035861 -0.495306
vn -0.995690 -0.041485 0.082946
vn -0.994683 -0.089203 0.051464
vn -0.934721 -0.029951 0.354118
vn -0.927899 -0.121514 0.352472
vn -0.857988 0.011299 0.513546
vn -0.833694 -0.149046 0.531733
vn -0.601590 0.083457 0.794434
vn -0.630213 -0.111931 0.768312
vn -0.436516 0.089250 0.895259
vn -0.456745 -0.116902 0.881883
vn -0.422040 0.044769 0.905471
vn -0.430306 -0.133135 0.892811
vn 0.000000 0.012419 0.999923
vn 0.000000 -0.176791 0.984248
vn 0.422041 0.044769 0.905471
vn 0.430306 -0.133135 0.892811
vn 0.436516 0.089249 0.895259
vn 0.456745 -0.116902 0.881883
vn 0.601590 0.083456 0.794433
vn 0.630213 -0.111931 0.768312
vn 0.857988 0.011300 0.513546
vn 0.833694 -0.149046 0.531733
vn 0.934721 -0.029950 0.354118
vn 0.927900 -0.121514 0.352472
vn 0.995690 -0.041483 0.082945
vn 0.994683 -0.089203 0.051463
vn 0.973347 -0.025336 -0.227934
vn 0.966221 -0.057025 -0.251326
vn 0.874886 -0.000709 -0.484328
vn 0.867978 -0.035861 -0.495306
vn 0.703170 0.013533 -0.710893
vn 0.707584 -0.029678 -0.706006
vn 0.494008 0.016973 -0.869292
vn 0.504878 -0.031512 -0.862615
vn 0.253029 0.019710 -0.967258
vn 0.257361 -0.034334 -0.965705
vn -0.000014 0.020940 -0.999781
vn -0.000000 -0.041973 -0.999119
vn -0.253031 0.019706 -0.967257
vn -0.257358 -0.034337 -0.965706
vn -0.493996 0.016971 -0.869299
vn -0.504879 -0.031511 -0.862615
vn -0.703170 0.013533 -0.710893
vn -0.707587 -0.029678 -0.706003
vn -0.373422 -0.194640 0.907012
vn -0.402054 -0.252743 0.880042
vn 0.000000 -0.235688 0.971829
vn 0.000000 -0.164487 0.986379
vn -0.522937 -0.171002 0.835042
vn -0.501835 -0.212172 0.838537
vn -0.639990 -0.061129 0.765947
vn -0.625123 -0.146700 0.766616
vn -0.834467 -0.076261 0.545756
vn -0.821210 -0.138412 0.553585
vn -0.964219 -0.054990 0.259341
vn -0.943738 -0.120625 0.307909
vn -0.999982 0.002347 -0.005489
vn -0.998006 -0.060877 0.016680
vn -0.967049 0.020561 -0.253759
vn -0.965942 -0.024162 -0.257629
vn -0.861665 0.031482 -0.506500
vn -0.862682 -0.011047 -0.505627
vn -0.705980 0.048090 -0.706597
vn -0.703700 -0.000177 -0.710497
vn -0.500559 0.057133 -0.863815
vn -0.498936 -0.002748 -0.866635
vn -0.258707 0.065592 -0.963726
vn -0.253566 -0.005201 -0.967304
vn 0.000007 0.069682 -0.997569
vn 0.000003 0.003623 -0.999993
vn 0.258701 0.065589 -0.963728
vn 0.253567 -0.005202 -0.967304
vn 0.500553 0.057135 -0.863818
vn 0.498932 -0.002745 -0.866637
vn 0.705983 0.048092 -0.706594
vn 0.703700 -0.000178 -0.710497
vn 0.861665 0.031482 -0.506500
vn 0.862681 -0.011047 -0.505627
vn 0.967049 0.020560 -0.253759
vn 0.965942 -0.024162 -0.257629
vn 0.999982 0.002346 -0.005490
vn 0.998006 -0.060878 0.016680
vn 0.964219 -0.054990 0.259341
vn 0.943738 -0.120625 0.307908
vn 0.834467 -0.076260 0.545756
vn 0.821210 -0.138412 0.553585
vn 0.639991 -0.061128 0.765947
vn 0.625124 -0.146700 0.766616
vn 0.522937 -0.171002 0.835042
vn 0.501836 -0.212172 0.838537
vn 0.373422 -0.194639 0.907012
vn 0.402054 -0.252742 0.880042
s 1
g Pedestal
usemtl initialShadingGroup
f 62/73/1 63/74/2 64/75/3 65/76/4
f 64/75/3 66/81/5 67/82/6 65/76/4
f 67/82/6 68/92/7 69/83/8 65/76/4
f 69/83/8 70/84/9 62/73/1 65/76/4
f 69/83/8 68/92/7 71/103/10 72/94/11
f 71/103/10 73/115/12 74/104/13 72/94/11
f 74/104/13 75/105/14 76/93/15 72/94/11
f 76/93/15 70/84/9 69/83/8 72/94/11
f 76/93/15 75/105/14 77/108/16 78/97/17
f 77/108/16 79/118/18 80/109/19 78/97/17
f 80/109/19 81/98/20 82/86/21 78/97/17
f 82/86/21 70/84/9 76/93/15 78/97/17
f 82/86/21 81/98/20 83/87/22 84/78/23
f 83/87/22 85/88/24 86/77/25 84/78/23
f 86/77/25 63/74/2 62/73/1 84/78/23
f 62/73/1 70/84/9 82/86/21 84/78/23
f 87/110/26 81/98/20 80/109/19 88/119/27
f 80/109/19 79/118/18 89/124/28 88/119/27
f 89/124/28 90/128/29 91/125/30 88/119/27
f 91/125/30 92/120/31 87/110/26 88/119/27
f 91/125/30 90/128/29 93/131/32 94/129/33
f 93/131/32 95/133/34 96/132/35 94/129/33
f 96/132/35 97/130/36 98/126/37 94/129/33
f 98/126/37 92/120/31 91/125/30 94/129/33
f 98/126/37 97/130/36 99/127/38 100/121/39
f 99/127/38 101/123/40 102/116/41 100/121/39
f 102/116/41 103/106/42 104/111/43 100/121/39
f 104/111/43 92/120/31 98/126/37 100/121/39
f 104/111/43 103/106/42 105/95/44 106/99/45
f 105/95/44 85/88/24 83/87/22 106/99/45
f 83/87/22 81/98/20 87/110/26 106/99/45
f 87/110/26 92/120/31 104/111/43 106/99/45
f 107/96/46 103/106/42 102/116/41 108/107/47
f 102/116/41 101/123/40 109/117/48 108/107/47
f 109/117/48 110/112/49 111/100/50 108/107/47
f 111/100/50 112/89/51 107/96/46 108/107/47
f 111/100/50 110/112/49 113/113/52 114/101/53
f 113/113/52 115/122/54 116/114/55 114/101/53
f 116/114/55 117/102/56 118/90/57 114/101/53
f 118/90/57 112/89/51 111/100/50 114/101/53
f 118/90/57 117/102/56 119/91/58 120/80/59
f 119/91/58 66/81/5 64/75/3 120/80/59
f 64/75/3 63/74/2 121/79/60 120/80/59
f 121/79/60 112/89/51 118/90/57 120/80/59
f 121/79/60 63/74/2 86/77/25 122/85/61
f 86/77/25 85/88/24 105/95/44 122/85/61
f 105/95/44 103/106/42 107/96/46 122/85/61
f 107/96/46 112/89/51 121/79/60 122/85/61
s 2
f 23/134/62 24/135/63 20/136/64 11/137/65
f 20/136/64 24/135/63 21/140/66 6/141/67
f 21/140/66 24/135/63 22/138/68 8/146/69
f 22/138/68 24/135/63 23/134/62 12/139/70
f 22/138/68 28/149/71 25/156/72 8/146/69
f 25/156/72 28/149/71 26/159/73 1/167/74
f 26/159/73 28/149/71 27/148/75 9/160/76
f 27/148/75 28/149/71 22/138/68 12/139/70
f 27/148/75 32/158/77 29/170/78 9/160/76
f 29/170/78 32/158/77 30/169/79 4/179/80
f 30/169/79 32/158/77 31/147/81 10/157/82
f 31/147/81 32/158/77 27/148/75 12/139/70
f 31/147/81 35/145/83 33/154/84 10/157/82
f 33/154/84 35/145/83 34/144/85 7/155/86
f 34/144/85 35/145/83 23/134/62 11/137/65
f 23/134/62 35/145/83 31/147/81 12/139/70
f 38/168/87 39/178/88 30/169/79 10/157/82
f 30/169/79 39/178/88 36/186/89 4/179/80
f 36/186/89 39/178/88 37/185/90 13/191/91
f 37/185/90 39/178/88 38/168/87 16/177/92
f 37/185/90 43/190/93 40/193/94 13/191/91
f 40/193/94 43/190/93 41/192/95 2/194/96
f 41/192/95 43/190/93 42/184/97 14/189/98
f 42/184/97 43/190/93 37/185/90 16/177/92
f 42/184/97 47/183/99 44/188/100 14/189/98
f 44/188/100 47/183/99 45/182/101 5/187/102
f 45/182/101 47/183/99 46/176/103 15/175/104
f 46/176/103 47/183/99 42/184/97 16/177/92
f 46/176/103 49/166/105 48/165/106 15/175/104
f 48/165/106 49/166/105 33/154/84 7/155/86
f 33/154/84 49/166/105 38/168/87 10/157/82
f 38/168/87 49/166/105 46/176/103 16/177/92
f 52/164/107 53/174/108 45/182/101 15/175/104
f 45/182/101 53/174/108 50/181/109 5/187/102
f 50/181/109 53/174/108 51/163/110 17/173/111
f 51/163/110 53/174/108 52/164/107 19/152/112
f 51/163/110 57/162/113 54/172/114 17/173/111
f 54/172/114 57/162/113 55/171/115 3/180/116
f 55/171/115 57/162/113 56/151/117 18/161/118
f 56/151/117 57/162/113 51/163/110 19/152/112
f 56/151/117 60/142/119 58/150/120 18/161/118
f 58/150/120 60/142/119 20/136/64 6/141/67
f 20/136/64 60/142/119 59/143/121 11/137/65
f 59/143/121 60/142/119 56/151/117 19/152/112
f 59/143/121 61/153/122 34/144/85 11/137/65
f 34/144/85 61/153/122 48/165/106 7/155/86
f 48/165/106 61/153/122 52/164/107 15/175/104
f 52/164/107 61/153/122 59/143/121 19/152/112
s 3
f 6/1/123 21/2/124 154/3/125 155/4/126
f 21/2/124 8/5/127 153/6/128 154/3/125
f 8/5/127 25/7/129 152/8/130 153/6/128
f 25/7/129 1/9/131 151/10/132 152/8/130
f 1/9/131 26/11/133 150/12/134 151/10/132
f 26/11/133 9/13/135 149/14/136 150/12/134
f 9/13/135 29/15/137 148/16/138 149/14/136
f 29/15/137 4/17/139 147/18/140 148/16/138
f 4/17/139 36/19/141 170/20/142 147/18/140
f 36/19/141 13/21/143 169/22/144 170/20/142
f 13/21/143 40/23/145 168/24/146 169/22/144
f 40/23/145 2/25/147 167/26/148 168/24/146
f 2/25/147 41/27/149 166/28/150 167/26/148
f 41/27/149 14/29/151 165/30/152 166/28/150
f 14/29/151 44/31/153 164/32/154 165/30/152
f 44/31/153 5/33/155 163/34/156 164/32/154
f 5/33/155 50/35/157 162/36/158 163/34/156
f 50/35/157 17/37/159 161/38/160 162/36/158
f 17/37/159 54/39/161 160/40/162 161/38/160
f 54/39/161 3/217/163 159/218/164 160/40/162
f 3/41/163 55/43/165 158/44/166 159/42/164
f 55/43/165 18/45/167 157/46/168 158/44/166
f 18/45/167 58/47/169 156/48/170 157/46/168
f 58/47/169 6/1/123 155/4/126 156/48/170
f 77/49/171 124/50/172 123/51/173 79/52/174
f 75/53/175 125/54/176 124/50/172 77/49/171
f 74/55/177 126/56/178 125/54/176 75/53/175
f 73/57/179 127/58/180 126/56/178 74/55/177
f 71/59/181 128/60/182 127/58/180 73/57/179
f 68/61/183 129/62/184 128/60/182 71/59/181
f 67/63/185 130/64/186 129/62/184 68/61/183
f 66/65/187 131/66/188 130/64/186 67/63/185
f 119/67/189 132/68/190 131/66/188 66/65/187
f 117/69/191 133/70/192 132/68/190 119/67/189
f 116/71/193 134/72/194 133/70/192 117/69/191
f 115/195/195 135/196/196 134/72/194 116/71/193
f 113/221/197 136/222/198 135/219/196 115/220/195
f 110/197/199 137/198/200 136/222/198 113/221/197
f 109/199/201 138/200/202 137/198/200 110/197/199
f 101/201/203 139/202/204 138/200/202 109/199/201
f 99/203/205 140/204/206 139/202/204 101/201/203
f 97/205/207 141/206/208 140/204/206 99/203/205
f 96/207/209 142/208/210 141/206/208 97/205/207
f 95/209/211 143/210/212 142/208/210 96/207/209
f 93/211/213 144/212/214 143/210/212 95/209/211
f 90/213/215 145/214/216 144/212/214 93/211/213
f 89/215/217 146/216/218 145/214/216 90/213/215
f 79/52/174 123/51/173 146/216/218 89/215/217
f 124/50/172 148/16/138 147/18/140 123/51/173
f 125/54/176 149/14/136 148/16/138 124/50/172
f 126/56/178 150/12/134 149/14/136 125/54/176
f 127/58/180 151/10/132 150/12/134 126/56/178
f 128/60/182 152/8/130 151/10/132 127/58/180
f 129/62/184 153/6/128 152/8/130 128/60/182
f 130/64/186 154/3/125 153/6/128 129/62/184
f 131/66/188 155/4/126 154/3/125 130/64/186
f 132/68/190 156/48/170 155/4/126 131/66/188
f 133/70/192 157/46/168 156/48/170 132/68/190
f 134/72/194 158/44/166 157/46/168 133/70/192
f 135/196/196 159/42/164 158/44/166 134/72/194
f 136/222/198 160/40/162 159/218/164 135/219/196
f 137/198/200 161/38/160 160/40/162 136/222/198
f 138/200/202 162/36/158 161/38/160 137/198/200
f 139/202/204 163/34/156 162/36/158 138/200/202
f 140/204/206 164/32/154 163/34/156 139/202/204
f 141/206/208 165/30/152 164/32/154 140/204/206
f 142/208/210 166/28/150 165/30/152 141/206/208
f 143/210/212 167/26/148 166/28/150 142/208/210
f 144/212/214 168/24/146 167/26/148 143/210/212
f 145/214/216 169/22/144 168/24/146 144/212/214
f 146/216/218 170/20/142 169/22/144 145/214/216
f 123/51/173 147/18/140 170/20/142 146/216/218
