# This file uses centimeters as units for non-parametric coordinates.

mtllib FB_rockSmallThick_Env.mtl
g default
v -5.514115 60.211769 149.621536
v 148.476425 54.274586 -43.204445
v 55.524055 129.129852 -11.558310
v -148.476425 86.853340 23.730618
v -13.813550 -0.000013 2.487998
v -49.609306 49.753361 -149.621536
v 107.386200 115.072693 -38.653160
v 7.725147 126.380783 106.303391
v 97.857353 60.529343 137.482941
v 76.981552 114.330330 94.090668
v -26.577322 130.506500 9.810793
v -102.042229 79.651634 110.288864
v -58.620728 121.040039 87.923668
v -132.701111 -0.000013 29.997917
v -3.510117 -0.000013 120.030411
v -87.740265 -0.000013 105.559769
v 90.738876 -0.000013 13.975518
v 78.468834 -0.000013 111.859619
v 16.322979 111.783707 -95.650764
v 66.904152 41.919792 -137.180939
v 94.263092 114.422623 -95.269852
v -118.435211 75.356445 -79.440308
v -21.398649 116.602737 -63.905144
v -57.025246 -0.000013 -90.299133
v -106.410316 -0.000013 -41.598812
v 45.208469 -0.000013 -95.408638
v 136.616684 78.943405 -23.822470
v 82.059875 63.833153 -106.595116
v -16.777212 77.158905 -120.327026
v -73.932945 96.401810 -68.882538
v -98.458488 109.419403 24.369110
v -82.743721 98.046455 100.348778
v 0.369968 89.620193 130.369064
v 88.579224 84.440865 118.197510
v -139.333664 36.516670 27.362888
v -111.466026 31.682938 -57.508930
v -53.907318 20.918354 -115.240692
v 54.330189 17.624786 -112.971405
v 115.014084 22.819273 -10.065284
v 86.620575 25.449009 122.632713
v -4.352725 25.315510 132.471741
v -93.753410 33.488804 107.548065
vt 0.914725 0.556188
vt 0.924022 0.786175
vt 0.850810 0.792889
vt 0.861264 0.587118
vt 0.785711 0.731640
vt 0.763695 0.543852
vt 0.783595 0.480623
vt 0.677856 0.669963
vt 0.660759 0.545091
vt 0.576160 0.620188
vt 0.627900 0.503758
vt 0.511346 0.374795
vt 0.441368 0.497901
vt 0.397711 0.461182
vt 0.467796 0.345881
vt 0.274927 0.319775
vt 0.426810 0.221321
vt 0.467327 0.205906
vt 0.386512 0.083298
vt 0.356845 0.116020
vt 0.215303 0.169850
vt 0.159400 0.140753
vt 0.769529 0.933703
vt 0.627772 0.875124
vt 0.697790 0.837642
vt 0.808380 0.866436
vt 0.575623 0.768060
vt 0.656813 0.777163
vt 0.254548 0.524750
vt 0.134130 0.464743
vt 0.180238 0.445066
vt 0.281749 0.477026
vt 0.059801 0.302923
vt 0.099808 0.310188
vt 0.081951 0.101313
vt 0.728106 0.975851
vt 0.070637 0.492079
vt 0.217687 0.590919
vt 0.496677 0.600181
vt 0.571570 0.414760
vt 0.522634 0.183453
vt 0.427430 0.038156
vt 0.499268 0.776366
vt 0.501651 0.548500
vt 0.566978 0.918508
vt 0.962492 0.820315
vt 0.004200 0.324528
vt 0.587388 0.484596
vt 0.752039 0.424593
vt 0.933768 0.507365
vt 0.519629 0.338949
vt 0.601558 0.470765
vt 0.591262 0.330964
vt 0.464560 0.200010
vt 0.798986 0.429792
vt 0.516529 0.170686
vt 0.355856 0.071886
vt 0.957776 0.532347
vt 0.355426 0.010838
vt 0.156558 0.147026
vt 0.952679 0.836942
vt 0.075906 0.114738
vt 0.059618 0.316214
vt 0.139067 0.473814
vt 0.268590 0.530306
vt 0.503076 0.770045
vt 0.250263 0.603766
vt 0.405281 0.517705
vt 0.901468 0.542793
vt 0.757175 0.477376
vt 0.619757 0.511887
vt 0.576297 0.627406
vt 0.415914 0.595673
vt 0.498266 0.614139
vt 0.573602 0.771289
vt 0.632510 0.881123
vt 0.854473 0.928726
vt 0.004620 0.292880
vt 0.850397 0.987548
vt 0.921759 0.799060
vt 0.561234 0.913255
vt 0.082356 0.513466
vn 0.632368 0.580953 0.512449
vn 0.872796 0.485737 0.047821
vn 0.565179 0.820837 -0.082454
vn 0.477031 0.827961 0.294825
vn 0.106089 0.994211 -0.016990
vn 0.052443 0.939352 0.338922
vn -0.029644 0.598423 0.800632
vn -0.149838 0.986891 -0.059960
vn -0.223887 0.938515 0.262799
vn -0.399185 0.915768 -0.044954
vn -0.361130 0.797978 0.482510
vn -0.642264 -0.217569 0.734956
vn -0.971522 -0.209784 0.110161
vn -0.379142 -0.923707 0.054928
vn -0.200054 -0.944424 0.260849
vn 0.000000 -1.000000 0.000000
vn -0.018640 -0.971329 0.237007
vn -0.111744 -0.347866 0.930861
vn 0.635760 -0.546167 0.545445
vn 0.235471 -0.950393 0.203238
vn 0.257973 -0.966146 -0.003425
vn 0.751695 -0.659231 -0.019219
vn 0.442248 0.497542 -0.746236
vn -0.054627 0.719453 -0.692389
vn -0.017387 0.815821 -0.578044
vn 0.405816 0.718116 -0.565352
vn -0.316744 0.880532 -0.352614
vn -0.196892 0.934886 -0.295332
vn -0.840009 -0.346157 -0.417805
vn -0.358428 -0.652551 -0.667613
vn -0.124009 -0.968099 -0.217729
vn -0.304789 -0.939954 -0.153590
vn 0.324221 -0.804140 -0.498237
vn 0.143060 -0.969805 -0.197515
vn 0.927823 -0.300852 -0.220526
vn 0.419367 -0.247859 -0.873325
vn -0.295361 0.039799 -0.954557
vn -0.761745 0.392591 -0.515380
vn -0.916330 0.399473 0.027570
vn -0.666537 0.232855 0.708172
vn -0.117434 0.043249 0.992139
vn 0.728922 -0.105768 0.676377
s 1
g rock_small_thick
usemtl initialShadingGroup
f 34/1/1 27/2/2 7/3/3 10/4/4
f 7/3/3 3/5/5 8/6/6 10/4/4
f 8/6/6 33/7/7 34/69/1 10/4/4
f 8/6/6 3/5/5 11/8/8 13/9/9
f 11/8/8 31/10/10 32/71/11 13/9/9
f 32/11/11 33/70/7 8/6/6 13/9/9
f 42/12/12 35/13/13 14/14/14 16/15/15
f 14/14/14 5/16/16 15/17/17 16/15/15
f 15/17/17 41/18/18 42/51/12 16/15/15
f 40/19/19 41/54/18 15/17/17 18/20/20
f 15/17/17 5/16/16 17/21/21 18/20/20
f 17/21/21 39/22/22 40/57/19 18/20/20
f 28/23/23 29/76/24 19/25/25 21/26/26
f 19/25/25 3/5/5 7/3/3 21/26/26
f 7/3/3 27/80/2 28/77/23 21/26/26
f 19/25/25 29/24/24 30/75/27 23/28/28
f 30/27/27 31/72/10 11/8/8 23/28/28
f 11/8/8 3/5/5 19/25/25 23/28/28
f 36/29/29 37/64/30 24/31/31 25/32/32
f 24/31/31 5/16/16 14/14/14 25/32/32
f 14/14/14 35/68/13 36/65/29 25/32/32
f 24/31/31 37/30/30 38/63/33 26/34/34
f 38/33/33 39/60/22 17/21/21 26/34/34
f 17/21/21 5/16/16 24/31/31 26/34/34
f 28/77/23 27/80/2 2/61/35 20/79/36
f 20/36/36 6/45/37 29/76/24 28/23/23
f 30/75/27 29/24/24 6/81/37 22/43/38
f 22/66/38 4/74/39 31/72/10 30/27/27
f 32/71/11 31/10/10 4/39/39 12/48/40
f 12/52/40 1/49/41 33/70/7 32/11/11
f 34/69/1 33/7/7 1/55/41 9/50/42
f 9/58/42 2/46/35 27/2/2 34/1/1
f 36/65/29 35/68/13 4/73/39 22/67/38
f 22/38/38 6/82/37 37/64/30 36/29/29
f 38/63/33 37/30/30 6/37/37 20/47/36
f 20/78/36 2/62/35 39/60/22 38/33/33
f 40/57/19 39/22/22 2/35/35 9/59/42
f 9/42/42 1/56/41 41/54/18 40/19/19
f 42/51/12 41/18/18 1/41/41 12/53/40
f 12/40/40 4/44/39 35/13/13 42/12/12
