# This file uses centimeters as units for non-parametric coordinates.

mtllib christmasTree.mtl
g default
v 49.566621 0.000002 -36.012297
v 18.932756 0.000002 -58.269123
v -18.932756 0.000002 -58.269114
v -49.566621 0.000002 -36.012293
v -61.267864 0.000002 0.000003
v -49.566621 0.000002 36.012280
v -18.932756 0.000002 58.269118
v 18.932756 0.000002 58.269114
v 49.566621 0.000002 36.012276
v 61.267864 0.000002 -0.000001
v 43.927009 23.998528 -31.914845
v 16.778521 23.998528 -51.639303
v -16.778654 23.998528 -51.639286
v -43.927009 23.998528 -31.914833
v -54.296709 23.998528 0.000002
v -43.927009 23.998528 31.914837
v -16.778521 23.998528 51.639286
v 16.778521 23.998528 51.639286
v 43.927009 23.998528 31.914833
v 54.296709 23.998528 -0.000001
v 40.395749 46.691332 -29.349257
v 15.429773 46.691332 -47.488105
v -15.429773 46.691332 -47.488100
v -40.395749 46.691332 -29.349248
v -49.932085 46.691332 0.000002
v -40.395749 46.691332 29.349248
v -15.429773 46.691332 47.488096
v 15.429773 46.691332 47.488096
v 40.395749 46.691332 29.349248
v 49.931685 46.691332 -0.000001
v 37.571141 77.862583 -27.297060
v 14.350988 77.862583 -44.167578
v -14.350988 77.862583 -44.167561
v -37.571141 77.862583 -27.297058
v -46.440572 77.862583 0.000001
v -37.571141 77.862583 27.297058
v -14.350988 77.862583 44.167561
v 14.350988 77.862583 44.167557
v 37.571141 77.862583 27.297056
v 46.440572 77.862583 -0.000001
v 35.491732 114.580880 -25.786219
v 13.556438 114.580880 -41.722972
v -13.556838 114.580880 -41.722968
v -35.491732 114.580880 -25.786214
v -43.870188 114.580880 0.000001
v -35.491732 114.580880 25.786214
v -13.556838 114.580880 41.722964
v 13.556438 114.580880 41.722964
v 35.491732 114.580880 25.786210
v 43.870055 114.580880 -0.000002
v 39.413798 158.763561 -28.635810
v 15.054706 158.763561 -46.333705
v -15.054706 158.763561 -46.333701
v -39.413798 158.763561 -28.635802
v -48.718185 158.763561 0.000002
v -39.413798 158.763561 28.635804
v -15.054706 158.763561 46.333701
v 15.054706 158.763561 46.333701
v 39.413798 158.763561 28.635794
v 48.718185 158.763561 -0.000001
v 148.324663 112.790020 -106.756413
v 51.419683 160.829962 -155.233379
v -54.738067 112.790020 -172.735491
v -131.068105 160.829962 -95.939470
v -180.237651 112.790020 0.000004
v -131.068105 160.829962 95.939511
v -54.737933 112.790020 172.735541
v 51.419683 160.829962 155.233379
v 148.324663 112.790020 106.756396
v 164.203396 160.829962 0.000021
v 40.249563 260.560586 -29.243088
v 15.374020 260.560586 -47.316306
v -15.374020 260.560586 -47.316302
v -40.249830 260.560586 -29.243081
v -49.751354 260.560586 0.000002
v -40.249830 260.560586 29.243083
v -15.374020 260.560586 47.316297
v 15.374020 260.560586 47.316297
v 40.249563 260.560586 29.243079
v 49.751354 260.560586 -0.000001
v 112.458931 248.576114 -81.706224
v 48.160253 215.963351 -147.108979
v -42.955595 248.576114 -132.203402
v -124.776927 215.963351 -90.918369
v -139.006805 248.576114 0.000013
v -124.776927 215.963351 90.918386
v -42.955462 248.576114 132.203402
v 48.160253 215.963351 147.108963
v 112.458931 248.576114 81.706207
v 155.041193 215.963351 0.000005
v 37.664641 356.662871 -27.364961
v 14.386601 356.662871 -44.277438
v -14.386601 356.662871 -44.277438
v -37.664641 356.662871 -27.364955
v -46.556080 356.662871 0.000001
v -37.664641 356.662871 27.364961
v -14.386601 356.662871 44.277430
v 14.386601 356.662871 44.277430
v 37.664641 356.662871 27.364957
v 46.556080 356.662871 -0.000001
v 118.789324 292.280136 -85.005468
v 41.505078 318.448547 -123.605517
v -42.900643 292.280136 -137.541690
v -103.801708 318.448547 -76.392411
v -142.830569 292.280136 0.000012
v -103.801708 318.448547 76.392411
v -42.900643 292.280136 137.541690
v 41.505078 318.448547 123.605517
v 118.789324 292.280136 85.005451
v 131.309791 318.448547 0.000003
v 32.975634 429.402394 -23.958175
v 12.595561 429.402394 -38.765138
v -12.595561 429.402394 -38.765125
v -32.975634 429.402394 -23.958166
v -40.760145 429.402394 0.000001
v -32.975634 429.402394 23.958166
v -12.595561 429.402394 38.765129
v 12.595561 429.402394 38.765117
v 32.975634 429.402394 23.958162
v 40.760012 429.402394 -0.000002
v 92.874076 400.710766 -68.315278
v 39.246939 385.500219 -122.999067
v -37.069495 400.710766 -110.536412
v -105.347193 385.500219 -76.017644
v -117.378820 400.710766 0.000011
v -105.347193 385.500219 76.017652
v -37.069362 400.710766 110.536412
v 39.246939 385.500219 122.999067
v 92.873942 400.710766 68.315262
v 128.610962 385.500219 0.000005
v 28.736921 489.696767 -20.878580
v 10.976584 489.696767 -33.782253
v -10.976584 489.696767 -33.782243
v -28.736921 489.696767 -20.878578
v -35.520809 489.696767 0.000000
v -28.736921 489.696767 20.878576
v -10.976584 489.696767 33.782243
v 10.976584 489.696767 33.782239
v 28.736921 489.696767 20.878571
v 35.520676 489.696767 -0.000002
v 70.391253 467.748440 -50.494911
v 24.338552 474.142903 -73.424085
v -25.655822 467.748440 -81.702439
v -61.976516 474.142903 -45.378598
v -85.016205 467.748440 0.000004
v -61.976516 474.142903 45.378585
v -25.655822 467.748440 81.702439
v 24.338552 474.142903 73.424085
v 70.391253 467.748440 50.494903
v 77.684255 474.142903 -0.000001
v 24.872743 539.875316 -18.071138
v 9.500590 539.875316 -29.239718
v -9.500590 539.875316 -29.239718
v -24.872876 539.875316 -18.071136
v -30.744705 539.875316 -0.000001
v -24.872876 539.875316 18.071132
v -9.500590 539.875316 29.239711
v 9.500590 539.875316 29.239713
v 24.872743 539.875316 18.071132
v 30.744304 539.875316 -0.000002
v 45.567594 534.256173 -33.106896
v 19.041862 526.869735 -60.857417
v -17.405278 534.256173 -53.568087
v -52.500201 526.869735 -37.611947
v -56.325033 534.256173 0.000003
v -52.500201 526.869735 37.611939
v -17.405278 534.256173 53.568078
v 19.041862 526.869735 60.857409
v 45.567594 534.256173 33.106891
v 63.257374 526.869735 -0.000000
v 19.022788 589.238876 -13.820906
v 7.266060 589.238876 -22.362680
v -7.266193 589.238876 -22.362674
v -19.022788 589.238876 -13.820900
v -23.513591 589.238876 -0.000001
v -19.022788 589.238876 13.820898
v -7.266193 589.238876 22.362676
v 7.266060 589.238876 22.362674
v 19.022788 589.238876 13.820898
v 23.513591 589.238876 -0.000003
v 31.656230 587.905716 -23.531401
v 10.889353 587.981470 -33.514118
v -13.103076 587.905716 -38.074591
v -28.508840 587.981470 -20.712875
v -40.765881 587.905716 0.000001
v -28.508840 587.981470 20.712871
v -13.103076 587.905716 38.074583
v 10.889353 587.981470 33.514107
v 31.656230 587.905716 23.531393
v 35.238708 587.981470 -0.000002
v 13.362769 615.202959 -9.708624
v 5.104088 615.202959 -15.708891
v -5.104088 615.202959 -15.708885
v -13.362769 615.202959 -9.708624
v -16.517361 615.202959 -0.000002
v -13.362769 615.202959 9.708618
v -5.104088 615.202959 15.708883
v 5.104088 615.202959 15.708882
v 13.362769 615.202959 9.708618
v 16.517361 615.202959 -0.000003
v 0.000000 650.901333 -0.000004
vt 0.501833 0.337696
vt 0.469347 0.296949
vt 0.496004 0.275824
vt 0.528699 0.310172
vt 0.442367 0.258070
vt 0.468438 0.240115
vt 0.418562 0.220376
vt 0.444204 0.204498
vt 0.397036 0.183160
vt 0.422670 0.169092
vt 0.377881 0.145403
vt 0.403969 0.133659
vt 0.362508 0.106112
vt 0.677167 0.408074
vt 0.625308 0.419005
vt 0.639230 0.390811
vt 0.584251 0.396317
vt 0.601387 0.368580
vt 0.543478 0.369686
vt 0.564105 0.342037
vt 0.520719 0.254833
vt 0.551356 0.286794
vt 0.493454 0.221619
vt 0.469141 0.188095
vt 0.447520 0.154659
vt 0.428668 0.121578
vt 0.687557 0.382351
vt 0.653442 0.364459
vt 0.618706 0.342328
vt 0.584332 0.316402
vt 0.553868 0.225216
vt 0.582476 0.254580
vt 0.527450 0.194747
vt 0.503291 0.163870
vt 0.481380 0.133115
vt 0.461774 0.103001
vt 0.705049 0.349010
vt 0.674917 0.329710
vt 0.643819 0.307327
vt 0.612709 0.282181
vt 0.591980 0.189792
vt 0.618887 0.217061
vt 0.566504 0.161728
vt 0.542552 0.133324
vt 0.520130 0.105066
vt 0.499211 0.077635
vt 0.729732 0.312420
vt 0.703321 0.290986
vt 0.675260 0.267873
vt 0.646843 0.243179
vt 0.633491 0.149949
vt 0.659250 0.175644
vt 0.608781 0.123678
vt 0.585124 0.096959
vt 0.562300 0.070032
vt 0.539862 0.043266
vt 0.767508 0.274002
vt 0.740628 0.249329
vt 0.713187 0.225135
vt 0.685912 0.200688
vt 0.108907 0.451343
vt 0.077403 0.345053
vt 0.204029 0.281861
vt 0.222364 0.304016
vt 0.012710 0.255831
vt 0.197687 0.253809
vt 0.076638 0.165339
vt 0.203778 0.225704
vt 0.106920 0.059183
vt 0.221873 0.203352
vt 0.217155 0.053295
vt 0.247694 0.190686
vt 0.319609 0.011121
vt 0.319833 0.279327
vt 0.393526 0.411092
vt 0.302791 0.302494
vt 0.322107 0.495882
vt 0.277118 0.315455
vt 0.219336 0.455285
vt 0.248371 0.316295
vt 0.292335 0.694306
vt 0.336684 0.767054
vt 0.181334 0.765493
vt 0.176818 0.740713
vt 0.290599 0.839312
vt 0.176230 0.790144
vt 0.270114 0.921955
vt 0.161812 0.810845
vt 0.186655 0.940341
vt 0.140778 0.824603
vt 0.113280 0.984142
vt 0.115979 0.829010
vt 0.041723 0.938006
vt 0.092730 0.705107
vt 0.118807 0.545102
vt 0.117500 0.700466
vt 0.190719 0.590791
vt 0.142181 0.705435
vt 0.273896 0.610767
vt 0.162920 0.719704
vt 0.406515 0.793319
vt 0.376467 0.715040
vt 0.491987 0.650119
vt 0.507024 0.668060
vt 0.326746 0.648463
vt 0.484889 0.627852
vt 0.359138 0.571206
vt 0.486456 0.604527
vt 0.369465 0.488543
vt 0.496739 0.583455
vt 0.445755 0.455079
vt 0.513962 0.567622
vt 0.510567 0.402007
vt 0.591721 0.660358
vt 0.633180 0.793166
vt 0.573413 0.674926
vt 0.564626 0.841435
vt 0.550932 0.681423
vt 0.488918 0.806378
vt 0.527647 0.679115
vt 0.904943 0.064333
vt 0.969726 0.111086
vt 0.842368 0.176795
vt 0.828099 0.159440
vt 0.971414 0.191695
vt 0.848431 0.198421
vt 0.979870 0.271053
vt 0.845155 0.220612
vt 0.921520 0.326179
vt 0.833149 0.239591
vt 0.867626 0.385646
vt 0.814425 0.252003
vt 0.788103 0.378829
vt 0.748648 0.171972
vt 0.686490 0.036054
vt 0.764615 0.156177
vt 0.765923 0.027506
vt 0.785606 0.148183
vt 0.844641 0.011153
vt 0.808036 0.149342
vt 0.695989 0.721447
vt 0.659573 0.667550
vt 0.742071 0.609105
vt 0.759018 0.625874
vt 0.621941 0.615675
vt 0.732109 0.587443
vt 0.630895 0.551346
vt 0.730860 0.563636
vt 0.638165 0.487401
vt 0.737992 0.540890
vt 0.687378 0.445928
vt 0.752980 0.522349
vt 0.735977 0.402842
vt 0.845373 0.612333
vt 0.877644 0.715469
vt 0.827247 0.627820
vt 0.821988 0.749134
vt 0.804832 0.635941
vt 0.759256 0.734073
vt 0.781005 0.635089
vt 0.935843 0.925788
vt 0.900028 0.970891
vt 0.850782 0.873250
vt 0.867887 0.860365
vt 0.844239 0.973010
vt 0.830376 0.879698
vt 0.788257 0.987509
vt 0.808956 0.879461
vt 0.742407 0.954066
vt 0.788905 0.871983
vt 0.690149 0.931936
vt 0.772180 0.858626
vt 0.673802 0.876464
vt 0.876849 0.780932
vt 0.991511 0.776473
vt 0.884880 0.800776
vt 0.979589 0.832820
vt 0.885865 0.822165
vt 0.978693 0.889174
vt 0.880104 0.842786
vt 0.938118 0.424225
vt 0.960477 0.459200
vt 0.345842 0.861148
vt 0.332784 0.885732
vt 0.978967 0.499125
vt 0.364783 0.840751
vt 0.969370 0.539825
vt 0.388332 0.825915
vt 0.955523 0.580914
vt 0.414918 0.817640
vt 0.918576 0.603603
vt 0.442721 0.816482
vt 0.881052 0.622062
vt 0.350044 0.991009
vt 0.818204 0.414140
vt 0.335435 0.967324
vt 0.856621 0.398414
vt 0.327389 0.940671
vt 0.898406 0.408051
vt 0.326506 0.912849
vt 0.433242 0.923318
vt 0.880433 0.464792
vt 0.896723 0.473328
vt 0.862201 0.462394
vt 0.844539 0.467518
vt 0.829725 0.478416
vt 0.889781 0.551509
vt 0.904069 0.539933
vt 0.912159 0.523419
vt 0.914054 0.505125
vt 0.908217 0.487683
vt 0.872377 0.557452
vt 0.469899 0.822520
vt 0.780102 0.436142
vt 0.957580 0.732138
vt 0.760955 0.840382
vt 0.933557 0.684150
vt 0.773496 0.510200
vt 0.645118 0.105264
vt 0.792276 0.255755
vt 0.711563 0.765576
vt 0.535900 0.559476
vt 0.045700 0.589846
vt 0.091320 0.823824
vt 0.488529 0.355232
vt 0.276453 0.191001
vt 0.479732 0.052083
vt 0.517080 0.017189
vt 0.444744 0.074183
vt 0.413234 0.089405
vt 0.389237 0.098254
vt 0.667743 0.436983
vn 0.776903 0.278947 -0.564455
vn 0.296753 0.278947 -0.913305
vn 0.299744 0.243118 -0.922522
vn 0.784744 0.243120 -0.570149
vn -0.296751 0.278946 -0.913306
vn -0.299747 0.243118 -0.922521
vn -0.776904 0.278947 -0.564455
vn -0.784744 0.243118 -0.570150
vn -0.960306 0.278948 0.000000
vn -0.969997 0.243118 0.000000
vn -0.776904 0.278947 0.564455
vn -0.784743 0.243118 0.570150
vn -0.296753 0.278947 0.913305
vn -0.299745 0.243118 0.922522
vn 0.296753 0.278947 0.913305
vn 0.299745 0.243118 0.922522
vn 0.776904 0.278947 0.564455
vn 0.784744 0.243120 0.570149
vn 0.960306 0.278948 -0.000000
vn 0.969996 0.243121 -0.000000
vn 0.305576 0.148810 -0.940467
vn 0.800010 0.148810 -0.581240
vn -0.305575 0.148810 -0.940468
vn -0.800009 0.148809 -0.581242
vn -0.988866 0.148809 0.000000
vn -0.800008 0.148809 0.581242
vn -0.305576 0.148809 0.940467
vn 0.305576 0.148810 0.940467
vn 0.800010 0.148810 0.581240
vn 0.988866 0.148810 -0.000000
vn 0.307747 0.090635 -0.947141
vn 0.805687 0.090634 -0.585366
vn -0.307745 0.090634 -0.947142
vn -0.805687 0.090634 -0.585366
vn -0.995884 0.090635 0.000000
vn -0.805687 0.090634 0.585366
vn -0.307745 0.090634 0.947142
vn 0.307747 0.090635 0.947141
vn 0.805687 0.090634 0.585366
vn 0.995884 0.090633 -0.000000
vn 0.308873 -0.030119 -0.950626
vn 0.808650 -0.030119 -0.587519
vn -0.308880 -0.030119 -0.950624
vn -0.808651 -0.030119 -0.587517
vn -0.999546 -0.030120 -0.000000
vn -0.808651 -0.030119 0.587517
vn -0.308879 -0.030119 0.950624
vn 0.308874 -0.030119 0.950626
vn 0.808650 -0.030119 0.587519
vn 0.999546 -0.030119 0.000000
vn 0.307174 -0.109072 -0.945382
vn 0.804189 -0.109073 -0.584280
vn -0.307171 -0.109071 -0.945383
vn -0.804191 -0.109070 -0.584278
vn -0.994034 -0.109071 -0.000000
vn -0.804191 -0.109070 0.584278
vn -0.307171 -0.109071 0.945383
vn 0.307175 -0.109072 0.945382
vn 0.804189 -0.109073 0.584280
vn 0.994034 -0.109073 0.000000
vn 0.589113 0.685660 -0.427571
vn 0.213013 0.730589 -0.648741
vn 0.209469 0.730574 -0.649911
vn 0.588755 0.685658 -0.428066
vn -0.225566 0.681548 -0.696141
vn -0.226526 0.681543 -0.695834
vn -0.554633 0.727101 -0.404607
vn -0.556015 0.727095 -0.402716
vn -0.734167 0.678969 0.000000
vn -0.734167 0.678969 0.000000
vn -0.554633 0.727101 0.404608
vn -0.556015 0.727095 0.402717
vn -0.225566 0.681548 0.696141
vn -0.226526 0.681543 0.695834
vn 0.213013 0.730589 0.648741
vn 0.209470 0.730574 0.649911
vn 0.589113 0.685660 0.427571
vn 0.588755 0.685658 0.428066
vn 0.680544 0.732707 0.000000
vn 0.680544 0.732707 -0.000000
vn 0.622100 0.639339 -0.451927
vn 0.243036 0.618388 -0.747349
vn 0.242577 0.618387 -0.747498
vn 0.622073 0.639339 -0.451963
vn -0.237633 0.638971 -0.731606
vn -0.237705 0.638971 -0.731582
vn -0.636419 0.617277 -0.462536
vn -0.636594 0.617276 -0.462296
vn -0.769420 0.638743 0.000000
vn -0.769420 0.638743 -0.000000
vn -0.636419 0.617277 0.462537
vn -0.636594 0.617276 0.462297
vn -0.237633 0.638971 0.731606
vn -0.237705 0.638971 0.731582
vn 0.243036 0.618388 0.747349
vn 0.242577 0.618387 0.747498
vn 0.622100 0.639339 0.451927
vn 0.622073 0.639339 0.451963
vn 0.785334 0.619072 0.000000
vn 0.785334 0.619072 0.000000
vn 0.639644 0.613689 -0.462862
vn 0.244367 0.622697 -0.743325
vn 0.239821 0.622664 -0.744833
vn 0.638150 0.613678 -0.464934
vn -0.243316 0.606550 -0.756898
vn -0.247327 0.606518 -0.755622
vn -0.636284 0.616004 -0.464415
vn -0.638080 0.615991 -0.461962
vn -0.798467 0.602038 0.000000
vn -0.798467 0.602038 -0.000000
vn -0.636284 0.616004 0.464415
vn -0.638080 0.615991 0.461962
vn -0.243316 0.606550 0.756898
vn -0.247327 0.606518 0.755622
vn 0.244367 0.622698 0.743325
vn 0.239821 0.622664 0.744832
vn 0.639644 0.613689 0.462862
vn 0.638150 0.613678 0.464934
vn 0.779226 0.626743 0.000000
vn 0.779226 0.626743 0.000000
vn 0.601787 0.667331 -0.438773
vn 0.227894 0.668624 -0.707818
vn 0.230609 0.668613 -0.706948
vn 0.603136 0.667323 -0.436930
vn -0.230607 0.672593 -0.703164
vn -0.227096 0.672571 -0.704326
vn -0.599563 0.672340 -0.434146
vn -0.598568 0.672336 -0.435523
vn -0.737103 0.675780 0.000000
vn -0.737103 0.675780 0.000000
vn -0.599563 0.672340 0.434146
vn -0.598568 0.672336 0.435523
vn -0.230607 0.672593 0.703164
vn -0.227097 0.672571 0.704326
vn 0.227894 0.668624 0.707817
vn 0.230610 0.668613 0.706948
vn 0.601788 0.667331 0.438773
vn 0.603136 0.667322 0.436930
vn 0.745690 0.666293 0.000001
vn 0.745690 0.666292 0.000001
vn 0.645696 0.604211 -0.466911
vn 0.251428 0.587420 -0.769234
vn 0.249125 0.587407 -0.769993
vn 0.643815 0.604198 -0.469517
vn -0.244914 0.597935 -0.763211
vn -0.249901 0.597900 -0.761620
vn -0.657230 0.582197 -0.478640
vn -0.658151 0.582191 -0.477378
vn -0.804483 0.593976 -0.000000
vn -0.804483 0.593976 -0.000000
vn -0.657230 0.582197 0.478640
vn -0.658151 0.582191 0.477378
vn -0.244914 0.597935 0.763211
vn -0.249901 0.597901 0.761620
vn 0.251428 0.587420 0.769234
vn 0.249125 0.587407 0.769993
vn 0.645696 0.604211 0.466911
vn 0.643815 0.604198 0.469517
vn 0.806963 0.590602 -0.000000
vn 0.806963 0.590602 -0.000000
vn 0.690781 0.520338 -0.502066
vn 0.259286 0.534423 -0.804464
vn 0.263711 0.534395 -0.803043
vn 0.690868 0.520338 -0.501946
vn -0.263602 0.522737 -0.810716
vn -0.263436 0.522736 -0.810770
vn -0.681548 0.540169 -0.493669
vn -0.679854 0.540159 -0.496011
vn -0.851587 0.524214 0.000000
vn -0.851587 0.524214 0.000000
vn -0.681548 0.540169 0.493669
vn -0.679854 0.540159 0.496011
vn -0.263602 0.522737 0.810716
vn -0.263436 0.522736 0.810770
vn 0.259286 0.534423 0.804464
vn 0.263711 0.534395 0.803043
vn 0.690780 0.520338 0.502066
vn 0.690868 0.520338 0.501946
vn 0.847485 0.530819 0.000000
vn 0.847485 0.530819 0.000000
vn 0.632634 0.620578 -0.463311
vn 0.248519 0.592852 -0.766006
vn 0.255829 0.560906 -0.787360
vn 0.659299 0.582266 -0.475700
vn -0.244361 0.630309 -0.736884
vn -0.245156 0.590638 -0.768795
vn -0.648864 0.597404 -0.471259
vn -0.667624 0.564798 -0.485059
vn -0.771590 0.636120 -0.000000
vn -0.803148 0.595780 0.000000
vn -0.648864 0.597404 0.471259
vn -0.667624 0.564798 0.485059
vn -0.244361 0.630309 0.736884
vn -0.245156 0.590638 0.768795
vn 0.248519 0.592851 0.766006
vn 0.255829 0.560906 0.787360
vn 0.632634 0.620578 0.463312
vn 0.659299 0.582266 0.475701
vn 0.807400 0.590005 0.000000
vn 0.829517 0.558481 -0.000000
vn 0.000000 1.000000 -0.000000
s 1
g cone_tree_lowerPoly
usemtl initialShadingGroup
f 1/1/1 2/2/2 12/3/3 11/4/4
f 2/2/2 3/5/5 13/6/6 12/3/3
f 3/5/5 4/7/7 14/8/8 13/6/6
f 4/7/7 5/9/9 15/10/10 14/8/8
f 5/9/9 6/11/11 16/12/12 15/10/10
f 6/11/11 7/13/13 17/231/14 16/12/12
f 7/232/13 8/15/15 18/16/16 17/14/14
f 8/15/15 9/17/17 19/18/18 18/16/16
f 9/17/17 10/19/19 20/20/20 19/18/18
f 10/19/19 1/1/1 11/4/4 20/20/20
f 11/4/4 12/3/3 22/21/21 21/22/22
f 12/3/3 13/6/6 23/23/23 22/21/21
f 13/6/6 14/8/8 24/24/24 23/23/23
f 14/8/8 15/10/10 25/25/25 24/24/24
f 15/10/10 16/12/12 26/26/26 25/25/25
f 16/12/12 17/231/14 27/230/27 26/26/26
f 17/14/14 18/16/16 28/28/28 27/27/27
f 18/16/16 19/18/18 29/29/29 28/28/28
f 19/18/18 20/20/20 30/30/30 29/29/29
f 20/20/20 11/4/4 21/22/22 30/30/30
f 21/22/22 22/21/21 32/31/31 31/32/32
f 22/21/21 23/23/23 33/33/33 32/31/31
f 23/23/23 24/24/24 34/34/34 33/33/33
f 24/24/24 25/25/25 35/35/35 34/34/34
f 25/25/25 26/26/26 36/36/36 35/35/35
f 26/26/26 27/230/27 37/229/37 36/36/36
f 27/27/27 28/28/28 38/38/38 37/37/37
f 28/28/28 29/29/29 39/39/39 38/38/38
f 29/29/29 30/30/30 40/40/40 39/39/39
f 30/30/30 21/22/22 31/32/32 40/40/40
f 31/32/32 32/31/31 42/41/41 41/42/42
f 32/31/31 33/33/33 43/43/43 42/41/41
f 33/33/33 34/34/34 44/44/44 43/43/43
f 34/34/34 35/35/35 45/45/45 44/44/44
f 35/35/35 36/36/36 46/46/46 45/45/45
f 36/36/36 37/229/37 47/227/47 46/46/46
f 37/37/37 38/38/38 48/48/48 47/47/47
f 38/38/38 39/39/39 49/49/49 48/48/48
f 39/39/39 40/40/40 50/50/50 49/49/49
f 40/40/40 31/32/32 41/42/42 50/50/50
f 41/42/42 42/41/41 52/51/51 51/52/52
f 42/41/41 43/43/43 53/53/53 52/51/51
f 43/43/43 44/44/44 54/54/54 53/53/53
f 44/44/44 45/45/45 55/55/55 54/54/54
f 45/45/45 46/46/46 56/56/56 55/55/55
f 46/46/46 47/227/47 57/228/57 56/56/56
f 47/47/47 48/48/48 58/58/58 57/57/57
f 48/48/48 49/49/49 59/59/59 58/58/58
f 49/49/49 50/50/50 60/60/60 59/59/59
f 50/50/50 41/42/42 51/52/52 60/60/60
s 2
f 61/61/61 62/62/62 72/63/63 71/64/64
f 62/62/62 63/65/65 73/66/66 72/63/63
f 63/65/65 64/67/67 74/68/68 73/66/66
f 64/67/67 65/69/69 75/70/70 74/68/68
f 65/69/69 66/71/71 76/72/72 75/70/70
f 66/71/71 67/73/73 77/226/74 76/72/72
f 67/225/73 68/75/75 78/76/76 77/74/74
f 68/75/75 69/77/77 79/78/78 78/76/76
f 69/77/77 70/79/79 80/80/80 79/78/78
f 70/79/79 61/61/61 71/64/64 80/80/80
s 3
f 81/81/81 82/82/82 92/83/83 91/84/84
f 82/82/82 83/85/85 93/86/86 92/83/83
f 83/85/85 84/87/87 94/88/88 93/86/86
f 84/87/87 85/89/89 95/90/90 94/88/88
f 85/89/89 86/91/91 96/92/92 95/90/90
f 86/91/91 87/93/93 97/224/94 96/92/92
f 87/223/93 88/95/95 98/96/96 97/94/94
f 88/95/95 89/97/97 99/98/98 98/96/96
f 89/97/97 90/99/99 100/100/100 99/98/98
f 90/99/99 81/81/81 91/84/84 100/100/100
s 4
f 101/101/101 102/102/102 112/103/103 111/104/104
f 102/102/102 103/105/105 113/106/106 112/103/103
f 103/105/105 104/107/107 114/108/108 113/106/106
f 104/107/107 105/109/109 115/110/110 114/108/108
f 105/109/109 106/111/111 116/112/112 115/110/110
f 106/111/111 107/113/113 117/222/114 116/112/112
f 107/221/113 108/115/115 118/116/116 117/114/114
f 108/115/115 109/117/117 119/118/118 118/116/116
f 109/117/117 110/119/119 120/120/120 119/118/118
f 110/119/119 101/101/101 111/104/104 120/120/120
s 5
f 121/121/121 122/122/122 132/123/123 131/124/124
f 122/122/122 123/125/125 133/126/126 132/123/123
f 123/125/125 124/127/127 134/128/128 133/126/126
f 124/127/127 125/129/129 135/130/130 134/128/128
f 125/129/129 126/131/131 136/132/132 135/130/130
f 126/131/131 127/133/133 137/220/134 136/132/132
f 127/219/133 128/135/135 138/136/136 137/134/134
f 128/135/135 129/137/137 139/138/138 138/136/136
f 129/137/137 130/139/139 140/140/140 139/138/138
f 130/139/139 121/121/121 131/124/124 140/140/140
s 6
f 141/141/141 142/142/142 152/143/143 151/144/144
f 142/142/142 143/145/145 153/146/146 152/143/143
f 143/145/145 144/147/147 154/148/148 153/146/146
f 144/147/147 145/149/149 155/150/150 154/148/148
f 145/149/149 146/151/151 156/152/152 155/150/150
f 146/151/151 147/153/153 157/218/154 156/152/152
f 147/217/153 148/155/155 158/156/156 157/154/154
f 148/155/155 149/157/157 159/158/158 158/156/156
f 149/157/157 150/159/159 160/160/160 159/158/158
f 150/159/159 141/141/141 151/144/144 160/160/160
s 7
f 161/161/161 162/162/162 172/163/163 171/164/164
f 162/162/162 163/165/165 173/166/166 172/163/163
f 163/165/165 164/167/167 174/168/168 173/166/166
f 164/167/167 165/169/169 175/170/170 174/168/168
f 165/169/169 166/171/171 176/172/172 175/170/170
f 166/171/171 167/173/173 177/216/174 176/172/172
f 167/215/173 168/175/175 178/176/176 177/174/174
f 168/175/175 169/177/177 179/178/178 178/176/176
f 169/177/177 170/179/179 180/180/180 179/178/178
f 170/179/179 161/161/161 171/164/164 180/180/180
s 8
f 181/181/181 182/182/182 192/211/183 191/203/184
f 182/182/182 183/185/185 193/210/186 192/211/183
f 183/185/185 184/187/187 194/209/188 193/210/186
f 184/187/187 185/189/189 195/208/190 194/209/188
f 185/189/189 186/191/191 196/207/192 195/208/190
f 186/191/191 187/193/193 197/212/194 196/207/192
f 187/214/193 188/195/195 198/205/196 197/206/194
f 188/195/195 189/197/197 199/204/198 198/205/196
f 189/197/197 190/199/199 200/202/200 199/204/198
f 190/199/199 181/181/181 191/203/184 200/202/200
f 191/184/184 192/183/183 201/201/201
f 192/183/183 193/186/186 201/201/201
f 193/186/186 194/188/188 201/201/201
f 194/188/188 195/190/190 201/201/201
f 195/190/190 196/192/192 201/201/201
f 196/192/192 197/213/194 201/201/201
f 197/194/194 198/196/196 201/201/201
f 198/196/196 199/198/198 201/201/201
f 199/198/198 200/200/200 201/201/201
f 200/200/200 191/184/184 201/201/201
