# This file uses centimeters as units for non-parametric coordinates.

mtllib FB_rockBigThick_Env.mtl
g default
v 16.619635 92.611069 165.675247
v 0.708678 0.000011 -48.788563
v 198.517456 73.820190 -34.357166
v 87.362297 252.386002 43.994705
v -200.861465 134.809921 -5.309050
v 25.926754 248.986847 -128.804718
v 161.301483 32.804752 -75.524307
v 172.952972 90.133034 103.300377
v 17.224049 0.935001 132.705872
v 159.333832 29.743521 85.616669
v 202.330795 143.895050 5.578501
v 68.190018 189.864105 137.058945
v 177.367691 155.091324 102.966927
v -183.754700 197.476120 38.193672
v -172.075516 89.017044 72.631195
v -171.919144 150.349884 71.335922
v -184.145523 44.430454 -7.054827
v -172.217987 33.272171 53.978676
v 152.864838 129.322159 -125.841667
v -31.670223 93.209938 -183.700653
v 127.950127 59.787651 -117.655235
v 62.177597 248.986908 -50.214588
v 165.656418 156.392273 -81.785187
v -183.834885 166.023300 -79.915771
v -183.769089 191.837128 -29.507256
v -184.014725 95.603943 -98.631233
v 65.842789 2.879805 -63.435303
v 26.127884 72.097160 -150.588943
v 61.546932 165.550552 -148.772171
v 112.451324 205.709259 -78.097870
v 146.819839 206.362091 35.676582
v 116.713318 174.409546 121.906960
v 94.256035 91.509735 142.036942
v 80.383827 13.738774 111.777367
v -26.252357 261.594727 54.503784
v -63.322128 255.024353 -27.842018
v -37.121910 255.024353 -107.287796
v -84.053833 95.607864 -175.159607
v -68.510735 4.227283 -49.018547
v -60.538277 -1.423315 135.880478
v -60.706272 91.617928 168.122192
v -35.625645 192.238281 153.149353
v -119.976112 179.630936 129.778870
v -125.590149 97.490135 134.310654
v -125.693176 4.683915 110.454582
v -127.406799 14.563540 -17.483913
v -130.662231 84.715302 -134.883072
v -128.244476 196.585190 -113.736832
v -121.037247 231.735443 -44.665348
v -117.823105 238.703949 48.010323
v 191.630432 48.958122 -34.620033
v 149.877594 92.552208 -128.490234
v 46.615372 118.095459 -158.464844
v -3.593019 172.949081 -173.166290
v -65.048698 177.396210 -157.320068
v -137.888626 141.115402 -131.675018
v -196.009644 131.249512 -94.231773
v -202.412018 86.963928 -5.260405
v -183.434662 57.093964 68.666451
v -133.783600 45.787560 131.659668
v -64.362892 39.389153 163.152847
v 18.432261 41.199150 160.140793
v 93.369247 47.659424 136.391937
v 168.691940 55.734779 97.517235
vt 0.081295 0.372183
vt 0.296036 0.408276
vt 0.285916 0.532298
vt 0.088162 0.481209
vt 0.063534 0.510302
vt 0.821193 0.362394
vt 0.824965 0.413537
vt 0.635936 0.445625
vt 0.549887 0.575988
vt 0.027469 0.389683
vt 0.771183 0.507889
vt 0.651973 0.528530
vt 0.726206 0.590079
vt 0.629327 0.595955
vt 0.583911 0.731731
vt 0.685423 0.747352
vt 0.663853 0.821471
vt 0.579552 0.807428
vt 0.641656 0.883573
vt 0.653574 0.949159
vt 0.545190 0.906859
vt 0.590885 0.879205
vt 0.517317 0.843328
vt 0.499309 0.756381
vt 0.112549 0.082349
vt 0.043128 0.172337
vt 0.347791 0.030459
vt 0.236749 0.042685
vt 0.156275 0.122164
vt 0.309389 0.167255
vt 0.322266 0.248011
vt 0.101771 0.191800
vt 0.393760 0.555144
vt 0.486103 0.443567
vt 0.927433 0.664849
vt 0.907595 0.563327
vt 0.441486 0.397018
vt 0.362846 0.512199
vt 0.834399 0.633203
vt 0.853060 0.561208
vt 0.744686 0.799902
vt 0.823160 0.794934
vt 0.788396 0.905254
vt 0.734807 0.858581
vt 0.730018 0.945288
vt 0.693319 0.911482
vt 0.620638 0.246062
vt 0.542388 0.163053
vt 0.514016 0.269666
vt 0.478470 0.198425
vt 0.488142 0.075242
vt 0.299204 0.328353
vt 0.506181 0.336771
vt 0.606593 0.377617
vt 0.867549 0.734116
vt 0.794634 0.691544
vt 0.714096 0.656392
vt 0.614821 0.643864
vt 0.515869 0.658571
vt 0.016565 0.289325
vt 0.078041 0.286715
vt 0.329417 0.088526
vt 0.246841 0.079725
vt 0.461641 0.116187
vt 0.561785 0.470307
vt 0.244518 0.589659
vt 0.515936 0.553906
vt 0.473943 0.641435
vt 0.456873 0.765795
vt 0.481471 0.871389
vt 0.524428 0.928013
vt 0.637243 0.986032
vt 0.734424 0.980252
vt 0.812616 0.953587
vt 0.897605 0.846970
vt 0.956728 0.720875
vt 0.978163 0.653589
vt 0.926901 0.523070
vt 0.052553 0.496600
vt 0.636274 0.397425
vt 0.028270 0.388253
vt 0.501050 0.538838
vt 0.018307 0.273389
vt 0.472795 0.611742
vt 0.050863 0.156395
vt 0.447602 0.709204
vt 0.491917 0.722216
vt 0.136203 0.065820
vt 0.468983 0.828142
vt 0.240582 0.040625
vt 0.524752 0.926655
vt 0.364711 0.040388
vt 0.582393 0.969156
vt 0.498751 0.084796
vt 0.721380 0.982109
vt 0.723617 0.948716
vt 0.544449 0.168789
vt 0.793660 0.960753
vt 0.782699 0.908984
vt 0.619701 0.297706
vt 0.859409 0.891016
vt 0.578139 0.416828
vt 0.927105 0.794920
vt 0.857472 0.742383
vt 0.485979 0.445761
vt 0.969269 0.648532
vt 0.922400 0.662528
vt 0.389078 0.559515
vt 0.941557 0.546317
vt 0.851830 0.437252
vt 0.225410 0.562696
vt 0.837350 0.459306
vt 0.510848 0.816691
vt 0.820975 0.811256
vt 0.538403 0.568468
vt 0.907278 0.555479
vt 0.617239 0.946633
vt 0.544634 0.904914
vt 0.510872 0.639409
vt 0.592938 0.491573
vn 0.236029 -0.957415 0.166272
vn 0.158351 -0.960234 -0.229947
vn 0.375750 -0.887232 -0.267643
vn 0.380637 -0.916396 0.123829
vn 0.749168 -0.437200 0.497597
vn 0.875406 -0.478073 -0.071486
vn 0.990507 -0.052615 -0.126993
vn 0.808811 -0.102357 0.579093
vn 0.352050 0.015165 0.935858
vn 0.375228 -0.349447 0.858540
vn 0.941454 0.337108 0.004675
vn 0.795506 0.301097 0.525842
vn 0.632866 0.770015 0.080976
vn 0.498074 0.454397 0.738543
vn -0.065672 0.578549 0.812999
vn -0.036873 0.949864 0.310481
vn -0.413873 0.853336 0.317061
vn -0.469847 0.492875 0.732337
vn -0.781468 0.568168 0.257862
vn -0.981810 0.149925 0.116494
vn -0.855778 0.086754 0.510018
vn -0.825951 0.205130 0.525097
vn -0.575394 0.093546 0.812509
vn -0.154596 0.090664 0.983809
vn -0.620466 -0.218271 0.753246
vn -0.189859 -0.301621 0.934333
vn -0.992558 -0.117022 0.033695
vn -0.897097 -0.160449 0.411672
vn -0.333783 -0.925193 0.180572
vn -0.317748 -0.916269 -0.243901
vn -0.135925 -0.946259 -0.293459
vn -0.090419 -0.970227 0.224685
vn 0.540806 -0.182154 -0.821188
vn 0.304191 -0.066199 -0.950308
vn 0.449680 0.401614 -0.797806
vn 0.630122 0.303908 -0.714553
vn 0.108623 -0.645040 -0.756389
vn 0.264292 -0.614749 -0.743124
vn 0.600010 0.702482 -0.382763
vn 0.756688 0.523652 -0.391423
vn -0.162467 0.983107 -0.084297
vn -0.180856 0.903780 -0.387909
vn -0.484527 0.658749 -0.575572
vn -0.461851 0.869620 -0.174514
vn -0.790662 0.488256 -0.369405
vn -0.751925 0.642426 -0.147977
vn -0.313661 0.415247 -0.853925
vn -0.519644 0.269113 -0.810893
vn -0.302563 -0.498080 -0.812633
vn -0.473120 -0.596040 -0.648764
vn -0.884989 0.053739 -0.462501
vn 0.011794 -0.974617 -0.223570
vn -0.027775 -0.522380 -0.852260
vn 0.056798 0.314968 -0.947401
vn 0.228614 0.818547 -0.526988
vn 0.328215 0.925059 -0.191157
vn 0.302955 0.926394 0.223636
vn 0.236648 0.575903 0.782517
vn 0.157937 0.077550 0.984399
vn 0.173087 -0.337777 0.925174
vn 0.085040 -0.974147 0.209300
vn -0.649490 -0.722640 -0.236548
vn -0.660688 -0.746235 0.081392
vn -0.666515 -0.543832 -0.509906
s 1
g rock_big_thick
usemtl initialShadingGroup
f 34/1/1 27/2/2 7/3/3 10/4/4
f 64/80/5 51/6/6 3/7/7 8/8/8
f 8/120/8 33/115/9 63/82/10 64/65/5
f 8/8/8 3/7/7 11/11/11 13/12/12
f 11/11/11 31/13/13 32/14/14 13/12/12
f 32/14/14 33/115/9 8/120/8 13/12/12
f 42/15/15 35/16/16 50/17/17 43/18/18
f 14/19/19 5/117/20 15/21/21 16/22/22
f 43/18/18 44/113/23 41/24/24 42/15/15
f 60/89/25 61/69/26 41/24/24 44/113/23
f 15/21/21 5/117/20 58/93/27 59/71/28
f 45/29/29 46/30/30 39/31/31 40/32/32
f 52/109/33 53/77/34 29/35/35 19/36/36
f 19/116/36 3/112/7 51/110/6 52/78/33
f 7/3/3 27/2/2 28/37/37 21/38/38
f 19/36/36 29/35/35 30/39/39 23/40/40
f 30/39/39 31/13/13 11/11/11 23/40/40
f 11/11/11 3/112/7 19/116/36 23/40/40
f 36/41/41 37/114/42 48/43/43 49/44/44
f 24/96/45 5/20/20 14/19/19 25/46/46
f 49/44/44 50/17/17 35/16/16 36/41/41
f 55/101/47 56/74/48 48/43/43 37/114/42
f 38/49/49 39/31/31 46/30/30 47/50/50
f 57/95/51 58/72/27 5/20/20 24/96/45
f 28/37/37 27/2/2 2/52/52 20/53/53
f 53/106/34 54/76/54 6/55/55 29/107/35
f 30/39/39 29/107/35 6/55/55 22/56/56
f 22/56/56 4/57/57 31/13/13 30/39/39
f 32/14/14 31/13/13 4/57/57 12/58/58
f 12/58/58 1/119/59 33/9/9 32/14/14
f 62/84/60 63/67/10 33/9/9 1/119/59
f 9/61/61 2/52/52 27/2/2 34/1/1
f 36/41/41 35/16/16 4/57/57 22/56/56
f 22/56/56 6/104/55 37/42/42 36/41/41
f 54/103/54 55/75/47 37/42/42 6/104/55
f 20/53/53 2/52/52 39/31/31 38/49/49
f 40/32/32 39/31/31 2/52/52 9/61/61
f 61/86/26 62/68/60 1/59/59 41/87/24
f 42/15/15 41/87/24 1/59/59 12/58/58
f 12/58/58 4/57/57 35/16/16 42/15/15
f 15/118/21 44/23/23 43/18/18 16/22/22
f 59/91/28 60/70/25 44/23/23 15/118/21
f 17/62/62 46/30/30 45/29/29 18/63/63
f 47/50/50 46/30/30 17/62/62 26/64/64
f 24/45/45 48/99/43 56/98/48 57/73/51
f 49/44/44 48/99/43 24/45/45 25/46/46
f 14/19/19 50/17/17 49/44/44 25/46/46
f 43/18/18 50/17/17 14/19/19 16/22/22
f 52/108/33 51/66/6 7/3/3 21/38/38
f 28/37/37 53/105/34 52/33/33 21/38/38
f 20/53/53 54/102/54 53/34/34 28/37/37
f 38/49/49 55/100/47 54/54/54 20/53/53
f 47/50/50 56/97/48 55/47/47 38/49/49
f 57/94/51 56/48/48 47/50/50 26/64/64
f 17/62/62 58/92/27 57/51/51 26/64/64
f 59/90/28 58/27/27 17/62/62 18/63/63
f 45/29/29 60/88/25 59/28/28 18/63/63
f 40/32/32 61/85/26 60/25/25 45/29/29
f 9/61/61 62/83/60 61/26/26 40/32/32
f 34/1/1 63/81/10 62/60/60 9/61/61
f 64/79/5 63/10/10 34/1/1 10/4/4
f 7/3/3 51/111/6 64/5/5 10/4/4
