# This file uses centimeters as units for non-parametric coordinates.

mtllib FB_christmasTree_Env.mtl
g default
v 49.566620 0.000002 -36.012299
v 18.932756 0.000002 -58.269123
v -18.932756 0.000002 -58.269112
v -49.566620 0.000002 -36.012295
v -61.267860 0.000002 0.000003
v -49.566620 0.000002 36.012280
v -18.932756 0.000002 58.269119
v 18.932756 0.000002 58.269112
v 49.566620 0.000002 36.012276
v 61.267860 0.000002 -0.000001
v 43.927010 23.998528 -31.914845
v 16.778521 23.998528 -51.639301
v -16.778654 23.998528 -51.639286
v -43.927010 23.998528 -31.914833
v -54.296711 23.998528 0.000002
v -43.927010 23.998528 31.914837
v -16.778521 23.998528 51.639286
v 16.778521 23.998528 51.639286
v 43.927010 23.998528 31.914833
v 54.296711 23.998528 -0.000001
v 40.395748 46.691330 -29.349257
v 15.429772 46.691330 -47.488106
v -15.429772 46.691330 -47.488102
v -40.395748 46.691330 -29.349249
v -49.932083 46.691330 0.000002
v -40.395748 46.691330 29.349249
v -15.429772 46.691330 47.488098
v 15.429772 46.691330 47.488098
v 40.395748 46.691330 29.349249
v 49.931686 46.691330 -0.000001
v 37.571144 77.862579 -27.297060
v 14.350987 77.862579 -44.167576
v -14.350987 77.862579 -44.167561
v -37.571144 77.862579 -27.297058
v -46.440571 77.862579 0.000001
v -37.571144 77.862579 27.297058
v -14.350987 77.862579 44.167561
v 14.350987 77.862579 44.167557
v 37.571144 77.862579 27.297056
v 46.440571 77.862579 -0.000001
v 35.491730 114.580879 -25.786219
v 13.556437 114.580879 -41.722973
v -13.556838 114.580879 -41.722965
v -35.491730 114.580879 -25.786215
v -43.870186 114.580879 0.000001
v -35.491730 114.580879 25.786215
v -13.556838 114.580879 41.722961
v 13.556437 114.580879 41.722961
v 35.491730 114.580879 25.786211
v 43.870056 114.580879 -0.000002
v 39.413799 158.763565 -28.635811
v 15.054706 158.763565 -46.333702
v -15.054706 158.763565 -46.333698
v -39.413799 158.763565 -28.635803
v -48.718185 158.763565 0.000002
v -39.413799 158.763565 28.635805
v -15.054706 158.763565 46.333698
v 15.054706 158.763565 46.333698
v 39.413799 158.763565 28.635794
v 48.718185 158.763565 -0.000001
v 148.324661 112.790024 -106.756416
v 51.419682 160.829956 -155.233368
v -54.738068 112.790024 -172.735489
v -131.068115 160.829956 -95.939468
v -180.237640 112.790024 0.000004
v -131.068115 160.829956 95.939507
v -54.737934 112.790024 172.735550
v 51.419682 160.829956 155.233368
v 148.324661 112.790024 106.756401
v 164.203400 160.829956 0.000021
v 40.249561 260.560608 -29.243088
v 15.374020 260.560608 -47.316307
v -15.374020 260.560608 -47.316303
v -40.249828 260.560608 -29.243082
v -49.751354 260.560608 0.000002
v -40.249828 260.560608 29.243084
v -15.374020 260.560608 47.316299
v 15.374020 260.560608 47.316299
v 40.249561 260.560608 29.243080
v 49.751354 260.560608 -0.000001
v 112.458931 248.576111 -81.706223
v 48.160255 215.963348 -147.108978
v -42.955597 248.576111 -132.203400
v -124.776924 215.963348 -90.918365
v -139.006805 248.576111 0.000013
v -124.776924 215.963348 90.918388
v -42.955460 248.576111 132.203400
v 48.160255 215.963348 147.108963
v 112.458931 248.576111 81.706200
v 155.041183 215.963348 0.000005
v 37.664642 356.662872 -27.364962
v 14.386600 356.662872 -44.277439
v -14.386600 356.662872 -44.277439
v -37.664642 356.662872 -27.364956
v -46.556080 356.662872 0.000001
v -37.664642 356.662872 27.364962
v -14.386600 356.662872 44.277428
v 14.386600 356.662872 44.277428
v 37.664642 356.662872 27.364958
v 46.556080 356.662872 -0.000001
v 118.789322 292.280151 -85.005463
v 41.505081 318.448547 -123.605522
v -42.900642 292.280151 -137.541687
v -103.801712 318.448547 -76.392410
v -142.830566 292.280151 0.000012
v -103.801712 318.448547 76.392410
v -42.900642 292.280151 137.541687
v 41.505081 318.448547 123.605522
v 118.789322 292.280151 85.005447
v 131.309784 318.448547 0.000003
v 32.975632 429.402405 -23.958174
v 12.595561 429.402405 -38.765137
v -12.595561 429.402405 -38.765125
v -32.975632 429.402405 -23.958166
v -40.760147 429.402405 0.000001
v -32.975632 429.402405 23.958166
v -12.595561 429.402405 38.765129
v 12.595561 429.402405 38.765114
v 32.975632 429.402405 23.958162
v 40.760010 429.402405 -0.000002
v 92.874077 400.710754 -68.315277
v 39.246941 385.500214 -122.999069
v -37.069496 400.710754 -110.536415
v -105.347198 385.500214 -76.017639
v -117.378822 400.710754 0.000011
v -105.347198 385.500214 76.017647
v -37.069359 400.710754 110.536415
v 39.246941 385.500214 122.999069
v 92.873947 400.710754 68.315262
v 128.610962 385.500214 0.000005
v 28.736921 489.696777 -20.878578
v 10.976583 489.696777 -33.782253
v -10.976583 489.696777 -33.782242
v -28.736921 489.696777 -20.878576
v -35.520805 489.696777 0.000000
v -28.736921 489.696777 20.878574
v -10.976583 489.696777 33.782242
v 10.976583 489.696777 33.782238
v 28.736921 489.696777 20.878571
v 35.520676 489.696777 -0.000002
v 70.391251 467.748444 -50.494911
v 24.338552 474.142883 -73.424088
v -25.655823 467.748444 -81.702438
v -61.976517 474.142883 -45.378597
v -85.016205 467.748444 0.000004
v -61.976517 474.142883 45.378586
v -25.655823 467.748444 81.702438
v 24.338552 474.142883 73.424088
v 70.391251 467.748444 50.494900
v 77.684258 474.142883 -0.000001
v 24.872742 539.875305 -18.071138
v 9.500590 539.875305 -29.239717
v -9.500590 539.875305 -29.239717
v -24.872875 539.875305 -18.071136
v -30.744705 539.875305 -0.000001
v -24.872875 539.875305 18.071133
v -9.500590 539.875305 29.239712
v 9.500590 539.875305 29.239714
v 24.872742 539.875305 18.071133
v 30.744305 539.875305 -0.000002
v 45.567596 534.256165 -33.106895
v 19.041862 526.869690 -60.857418
v -17.405277 534.256165 -53.568089
v -52.500198 526.869690 -37.611946
v -56.325035 534.256165 0.000003
v -52.500198 526.869690 37.611938
v -17.405277 534.256165 53.568081
v 19.041862 526.869690 60.857410
v 45.567596 534.256165 33.106892
v 63.257370 526.869690 -0.000000
v 19.022789 589.238831 -13.820907
v 7.266059 589.238831 -22.362680
v -7.266193 589.238831 -22.362673
v -19.022789 589.238831 -13.820900
v -23.513592 589.238831 -0.000001
v -19.022789 589.238831 13.820897
v -7.266193 589.238831 22.362675
v 7.266059 589.238831 22.362673
v 19.022789 589.238831 13.820897
v 23.513592 589.238831 -0.000003
v 31.656229 587.905701 -23.531403
v 10.889353 587.981445 -33.514118
v -13.103076 587.905701 -38.074593
v -28.508841 587.981445 -20.712875
v -40.765884 587.905701 0.000001
v -28.508841 587.981445 20.712870
v -13.103076 587.905701 38.074585
v 10.889353 587.981445 33.514107
v 31.656229 587.905701 23.531393
v 35.238708 587.981445 -0.000002
v 13.362768 615.202942 -9.708624
v 5.104088 615.202942 -15.708891
v -5.104088 615.202942 -15.708885
v -13.362768 615.202942 -9.708624
v -16.517361 615.202942 -0.000002
v -13.362768 615.202942 9.708617
v -5.104088 615.202942 15.708882
v 5.104088 615.202942 15.708881
v 13.362768 615.202942 9.708617
v 16.517361 615.202942 -0.000003
v 0.000000 650.901306 -0.000004
vt 0.501833 0.337696
vt 0.469347 0.296949
vt 0.496004 0.275824
vt 0.528699 0.310172
vt 0.442367 0.258070
vt 0.468438 0.240115
vt 0.418562 0.220376
vt 0.444204 0.204498
vt 0.397036 0.183160
vt 0.422670 0.169092
vt 0.377881 0.145403
vt 0.403969 0.133659
vt 0.362508 0.106112
vt 0.677167 0.408074
vt 0.625308 0.419005
vt 0.639230 0.390811
vt 0.584251 0.396317
vt 0.601387 0.368580
vt 0.543478 0.369686
vt 0.564105 0.342037
vt 0.520719 0.254833
vt 0.551356 0.286794
vt 0.493454 0.221619
vt 0.469141 0.188095
vt 0.447520 0.154659
vt 0.428668 0.121578
vt 0.687557 0.382351
vt 0.653442 0.364459
vt 0.618706 0.342328
vt 0.584332 0.316402
vt 0.553868 0.225216
vt 0.582476 0.254580
vt 0.527450 0.194747
vt 0.503291 0.163870
vt 0.481380 0.133115
vt 0.461774 0.103001
vt 0.705049 0.349010
vt 0.674917 0.329710
vt 0.643819 0.307327
vt 0.612709 0.282181
vt 0.591980 0.189792
vt 0.618887 0.217061
vt 0.566504 0.161728
vt 0.542552 0.133324
vt 0.520130 0.105066
vt 0.499211 0.077635
vt 0.729732 0.312420
vt 0.703321 0.290986
vt 0.675260 0.267873
vt 0.646843 0.243179
vt 0.633491 0.149949
vt 0.659250 0.175644
vt 0.608781 0.123678
vt 0.585124 0.096959
vt 0.562300 0.070032
vt 0.539862 0.043266
vt 0.767508 0.274002
vt 0.740628 0.249329
vt 0.713187 0.225135
vt 0.685912 0.200688
vt 0.108907 0.451343
vt 0.077403 0.345053
vt 0.204029 0.281861
vt 0.222364 0.304016
vt 0.012710 0.255831
vt 0.197687 0.253809
vt 0.076638 0.165339
vt 0.203778 0.225704
vt 0.106920 0.059183
vt 0.221873 0.203352
vt 0.217155 0.053295
vt 0.247694 0.190686
vt 0.319609 0.011121
vt 0.319833 0.279327
vt 0.393526 0.411092
vt 0.302791 0.302494
vt 0.322107 0.495882
vt 0.277118 0.315455
vt 0.219336 0.455285
vt 0.248371 0.316295
vt 0.292335 0.694306
vt 0.336684 0.767054
vt 0.181334 0.765493
vt 0.176818 0.740713
vt 0.290599 0.839312
vt 0.176230 0.790144
vt 0.270114 0.921955
vt 0.161812 0.810845
vt 0.186655 0.940341
vt 0.140778 0.824603
vt 0.113280 0.984142
vt 0.115979 0.829010
vt 0.041723 0.938006
vt 0.092730 0.705107
vt 0.118807 0.545102
vt 0.117500 0.700466
vt 0.190719 0.590791
vt 0.142181 0.705435
vt 0.273896 0.610767
vt 0.162920 0.719704
vt 0.406515 0.793319
vt 0.376467 0.715040
vt 0.491987 0.650119
vt 0.507024 0.668060
vt 0.326746 0.648463
vt 0.484889 0.627852
vt 0.359138 0.571206
vt 0.486456 0.604527
vt 0.369465 0.488543
vt 0.496739 0.583455
vt 0.445755 0.455079
vt 0.513962 0.567622
vt 0.510567 0.402007
vt 0.591721 0.660358
vt 0.633180 0.793166
vt 0.573413 0.674926
vt 0.564626 0.841435
vt 0.550932 0.681423
vt 0.488918 0.806378
vt 0.527647 0.679115
vt 0.904943 0.064333
vt 0.969726 0.111086
vt 0.842368 0.176795
vt 0.828099 0.159440
vt 0.971414 0.191695
vt 0.848431 0.198421
vt 0.979870 0.271053
vt 0.845155 0.220612
vt 0.921520 0.326179
vt 0.833149 0.239591
vt 0.867626 0.385646
vt 0.814425 0.252003
vt 0.788103 0.378829
vt 0.748648 0.171972
vt 0.686490 0.036054
vt 0.764615 0.156177
vt 0.765923 0.027506
vt 0.785606 0.148183
vt 0.844641 0.011153
vt 0.808036 0.149342
vt 0.695989 0.721447
vt 0.659573 0.667550
vt 0.742071 0.609105
vt 0.759018 0.625874
vt 0.621941 0.615675
vt 0.732109 0.587443
vt 0.630895 0.551346
vt 0.730860 0.563636
vt 0.638165 0.487401
vt 0.737992 0.540890
vt 0.687378 0.445928
vt 0.752980 0.522349
vt 0.735977 0.402842
vt 0.845373 0.612333
vt 0.877644 0.715469
vt 0.827247 0.627820
vt 0.821988 0.749134
vt 0.804832 0.635941
vt 0.759256 0.734073
vt 0.781005 0.635089
vt 0.935843 0.925788
vt 0.900028 0.970891
vt 0.850782 0.873250
vt 0.867887 0.860365
vt 0.844239 0.973010
vt 0.830376 0.879698
vt 0.788257 0.987509
vt 0.808956 0.879461
vt 0.742407 0.954066
vt 0.788905 0.871983
vt 0.690149 0.931936
vt 0.772180 0.858626
vt 0.673802 0.876464
vt 0.876849 0.780932
vt 0.991511 0.776473
vt 0.884880 0.800776
vt 0.979589 0.832820
vt 0.885865 0.822165
vt 0.978693 0.889174
vt 0.880104 0.842786
vt 0.938118 0.424225
vt 0.960477 0.459200
vt 0.345842 0.861148
vt 0.332784 0.885732
vt 0.978967 0.499125
vt 0.364783 0.840751
vt 0.969370 0.539825
vt 0.388332 0.825915
vt 0.955523 0.580914
vt 0.414918 0.817640
vt 0.918576 0.603603
vt 0.442721 0.816482
vt 0.881052 0.622062
vt 0.350044 0.991009
vt 0.818204 0.414140
vt 0.335435 0.967324
vt 0.856621 0.398414
vt 0.327389 0.940671
vt 0.898406 0.408051
vt 0.326506 0.912849
vt 0.433242 0.923318
vt 0.880433 0.464792
vt 0.896723 0.473328
vt 0.862201 0.462394
vt 0.844539 0.467518
vt 0.829725 0.478416
vt 0.889781 0.551509
vt 0.904069 0.539933
vt 0.912159 0.523419
vt 0.914054 0.505125
vt 0.908217 0.487683
vt 0.872377 0.557452
vt 0.469899 0.822520
vt 0.780102 0.436142
vt 0.957580 0.732138
vt 0.760955 0.840382
vt 0.933557 0.684150
vt 0.773496 0.510200
vt 0.645118 0.105264
vt 0.792276 0.255755
vt 0.711563 0.765576
vt 0.535900 0.559476
vt 0.045700 0.589846
vt 0.091320 0.823824
vt 0.488529 0.355232
vt 0.276453 0.191001
vt 0.479732 0.052083
vt 0.517080 0.017189
vt 0.444744 0.074183
vt 0.413234 0.089405
vt 0.389237 0.098254
vt 0.667743 0.436983
vn 0.776904 0.278947 -0.564455
vn 0.296752 0.278947 -0.913306
vn 0.299964 0.240274 -0.923196
vn 0.785317 0.240276 -0.570566
vn -0.296751 0.278946 -0.913306
vn -0.299965 0.240274 -0.923195
vn -0.776904 0.278947 -0.564454
vn -0.785317 0.240274 -0.570566
vn -0.960306 0.278948 -0.000000
vn -0.970705 0.240274 -0.000000
vn -0.776904 0.278947 0.564455
vn -0.785316 0.240274 0.570567
vn -0.296752 0.278947 0.913306
vn -0.299964 0.240274 0.923195
vn 0.296752 0.278947 0.913306
vn 0.299964 0.240274 0.923195
vn 0.776904 0.278947 0.564455
vn 0.785317 0.240276 0.570566
vn 0.960306 0.278948 0.000000
vn 0.970704 0.240277 0.000000
vn 0.305662 0.146949 -0.940732
vn 0.800235 0.146949 -0.581403
vn -0.305662 0.146949 -0.940732
vn -0.800234 0.146948 -0.581405
vn -0.989144 0.146948 0.000000
vn -0.800234 0.146948 0.581406
vn -0.305662 0.146949 0.940732
vn 0.305662 0.146949 0.940732
vn 0.800235 0.146949 0.581403
vn 0.989144 0.146949 0.000000
vn 0.307764 0.089974 -0.947199
vn 0.805736 0.089973 -0.585401
vn -0.307764 0.089974 -0.947199
vn -0.805736 0.089973 -0.585401
vn -0.995944 0.089974 -0.000000
vn -0.805736 0.089973 0.585401
vn -0.307764 0.089974 0.947199
vn 0.307764 0.089974 0.947199
vn 0.805736 0.089973 0.585401
vn 0.995944 0.089972 0.000000
vn 0.308880 -0.029585 -0.950641
vn 0.808662 -0.029586 -0.587529
vn -0.308883 -0.029585 -0.950640
vn -0.808664 -0.029585 -0.587527
vn -0.999562 -0.029586 -0.000000
vn -0.808664 -0.029585 0.587527
vn -0.308883 -0.029585 0.950640
vn 0.308880 -0.029585 0.950641
vn 0.808662 -0.029586 0.587529
vn 0.999562 -0.029586 -0.000000
vn 0.307173 -0.109072 -0.945382
vn 0.804189 -0.109073 -0.584280
vn -0.307173 -0.109071 -0.945383
vn -0.804191 -0.109070 -0.584278
vn -0.994034 -0.109071 0.000000
vn -0.804191 -0.109070 0.584278
vn -0.307173 -0.109071 0.945383
vn 0.307173 -0.109072 0.945382
vn 0.804189 -0.109073 0.584280
vn 0.994034 -0.109073 -0.000000
vn 0.589051 0.685659 -0.427657
vn 0.212095 0.730586 -0.649045
vn 0.209777 0.730576 -0.649810
vn 0.588794 0.685658 -0.428012
vn -0.225735 0.681547 -0.696087
vn -0.226420 0.681543 -0.695868
vn -0.554994 0.727099 -0.404114
vn -0.555894 0.727095 -0.402882
vn -0.734167 0.678969 0.000000
vn -0.734167 0.678969 0.000000
vn -0.554994 0.727099 0.404114
vn -0.555894 0.727095 0.402883
vn -0.225734 0.681547 0.696087
vn -0.226420 0.681544 0.695868
vn 0.212095 0.730586 0.649045
vn 0.209777 0.730576 0.649810
vn 0.589051 0.685659 0.427657
vn 0.588794 0.685658 0.428012
vn 0.680544 0.732707 0.000000
vn 0.680544 0.732707 -0.000000
vn 0.622037 0.639339 -0.452014
vn 0.242861 0.618387 -0.747406
vn 0.242661 0.618387 -0.747471
vn 0.622073 0.639339 -0.451963
vn -0.237801 0.638971 -0.731551
vn -0.237705 0.638971 -0.731582
vn -0.636486 0.617277 -0.462445
vn -0.636562 0.617276 -0.462341
vn -0.769420 0.638743 0.000000
vn -0.769420 0.638743 -0.000000
vn -0.636486 0.617277 0.462445
vn -0.636562 0.617276 0.462341
vn -0.237801 0.638971 0.731551
vn -0.237705 0.638971 0.731582
vn 0.242861 0.618387 0.747406
vn 0.242662 0.618387 0.747471
vn 0.622037 0.639339 0.452014
vn 0.622073 0.639339 0.451963
vn 0.785334 0.619072 0.000000
vn 0.785334 0.619072 -0.000000
vn 0.639305 0.613687 -0.463333
vn 0.243110 0.622690 -0.743744
vn 0.240409 0.622669 -0.744639
vn 0.638341 0.613679 -0.464670
vn -0.244241 0.606543 -0.756605
vn -0.246806 0.606523 -0.755789
vn -0.636788 0.616001 -0.463729
vn -0.637845 0.615993 -0.462284
vn -0.798467 0.602038 0.000000
vn -0.798467 0.602038 0.000000
vn -0.636788 0.616001 0.463729
vn -0.637845 0.615993 0.462284
vn -0.244241 0.606544 0.756605
vn -0.246806 0.606523 0.755789
vn 0.243111 0.622690 0.743744
vn 0.240409 0.622669 0.744639
vn 0.639305 0.613687 0.463333
vn 0.638341 0.613679 0.464670
vn 0.779226 0.626743 -0.000000
vn 0.779226 0.626743 -0.000000
vn 0.602025 0.667330 -0.438449
vn 0.228348 0.668623 -0.707673
vn 0.230390 0.668614 -0.707018
vn 0.602973 0.667324 -0.437152
vn -0.229997 0.672590 -0.703367
vn -0.227512 0.672574 -0.704189
vn -0.599401 0.672340 -0.434370
vn -0.598648 0.672336 -0.435412
vn -0.737103 0.675780 0.000000
vn -0.737103 0.675780 0.000000
vn -0.599401 0.672340 0.434371
vn -0.598648 0.672336 0.435413
vn -0.229996 0.672589 0.703367
vn -0.227512 0.672574 0.704189
vn 0.228348 0.668623 0.707673
vn 0.230391 0.668614 0.707018
vn 0.602025 0.667329 0.438449
vn 0.602974 0.667323 0.437153
vn 0.745690 0.666292 0.000000
vn 0.745690 0.666292 0.000000
vn 0.645231 0.604208 -0.467557
vn 0.250781 0.587417 -0.769448
vn 0.249447 0.587410 -0.769887
vn 0.644073 0.604200 -0.469160
vn -0.246160 0.597928 -0.762815
vn -0.249207 0.597907 -0.761842
vn -0.657493 0.582195 -0.478281
vn -0.658022 0.582192 -0.477555
vn -0.804482 0.593976 0.000000
vn -0.804482 0.593976 -0.000000
vn -0.657492 0.582195 0.478281
vn -0.658022 0.582192 0.477556
vn -0.246160 0.597928 0.762815
vn -0.249207 0.597907 0.761842
vn 0.250781 0.587417 0.769448
vn 0.249447 0.587409 0.769887
vn 0.645231 0.604208 0.467557
vn 0.644073 0.604200 0.469160
vn 0.806963 0.590602 -0.000000
vn 0.806963 0.590602 -0.000000
vn 0.690954 0.520338 -0.501827
vn 0.260720 0.534415 -0.804006
vn 0.262795 0.534402 -0.803339
vn 0.690868 0.520338 -0.501946
vn -0.263198 0.522736 -0.810848
vn -0.263436 0.522737 -0.810770
vn -0.681004 0.540166 -0.494423
vn -0.680205 0.540161 -0.495528
vn -0.851587 0.524214 0.000000
vn -0.851587 0.524214 -0.000000
vn -0.681004 0.540166 0.494423
vn -0.680205 0.540161 0.495528
vn -0.263198 0.522736 0.810848
vn -0.263436 0.522737 0.810770
vn 0.260721 0.534415 0.804006
vn 0.262796 0.534402 0.803339
vn 0.690954 0.520338 0.501828
vn 0.690868 0.520338 0.501946
vn 0.847485 0.530819 0.000000
vn 0.847485 0.530819 0.000000
vn 0.633373 0.620572 -0.462309
vn 0.248656 0.592851 -0.765962
vn 0.256656 0.556937 -0.789904
vn 0.661376 0.577828 -0.478222
vn -0.242502 0.630294 -0.737511
vn -0.247422 0.586093 -0.771542
vn -0.648831 0.597403 -0.471304
vn -0.669859 0.560740 -0.486682
vn -0.771590 0.636121 0.000001
vn -0.806559 0.591154 0.000001
vn -0.648831 0.597403 0.471304
vn -0.669859 0.560740 0.486683
vn -0.242503 0.630293 0.737511
vn -0.247422 0.586093 0.771542
vn 0.248656 0.592851 0.765963
vn 0.256656 0.556937 0.789905
vn 0.633373 0.620572 0.462309
vn 0.661376 0.577828 0.478223
vn 0.807400 0.590005 0.000000
vn 0.832139 0.554568 -0.000000
vn 0.000000 1.000000 0.000000
s 1
g cone_tree_lowerPoly
usemtl initialShadingGroup
f 1/1/1 2/2/2 12/3/3 11/4/4
f 2/2/2 3/5/5 13/6/6 12/3/3
f 3/5/5 4/7/7 14/8/8 13/6/6
f 4/7/7 5/9/9 15/10/10 14/8/8
f 5/9/9 6/11/11 16/12/12 15/10/10
f 6/11/11 7/13/13 17/231/14 16/12/12
f 7/232/13 8/15/15 18/16/16 17/14/14
f 8/15/15 9/17/17 19/18/18 18/16/16
f 9/17/17 10/19/19 20/20/20 19/18/18
f 10/19/19 1/1/1 11/4/4 20/20/20
f 11/4/4 12/3/3 22/21/21 21/22/22
f 12/3/3 13/6/6 23/23/23 22/21/21
f 13/6/6 14/8/8 24/24/24 23/23/23
f 14/8/8 15/10/10 25/25/25 24/24/24
f 15/10/10 16/12/12 26/26/26 25/25/25
f 16/12/12 17/231/14 27/230/27 26/26/26
f 17/14/14 18/16/16 28/28/28 27/27/27
f 18/16/16 19/18/18 29/29/29 28/28/28
f 19/18/18 20/20/20 30/30/30 29/29/29
f 20/20/20 11/4/4 21/22/22 30/30/30
f 21/22/22 22/21/21 32/31/31 31/32/32
f 22/21/21 23/23/23 33/33/33 32/31/31
f 23/23/23 24/24/24 34/34/34 33/33/33
f 24/24/24 25/25/25 35/35/35 34/34/34
f 25/25/25 26/26/26 36/36/36 35/35/35
f 26/26/26 27/230/27 37/229/37 36/36/36
f 27/27/27 28/28/28 38/38/38 37/37/37
f 28/28/28 29/29/29 39/39/39 38/38/38
f 29/29/29 30/30/30 40/40/40 39/39/39
f 30/30/30 21/22/22 31/32/32 40/40/40
f 31/32/32 32/31/31 42/41/41 41/42/42
f 32/31/31 33/33/33 43/43/43 42/41/41
f 33/33/33 34/34/34 44/44/44 43/43/43
f 34/34/34 35/35/35 45/45/45 44/44/44
f 35/35/35 36/36/36 46/46/46 45/45/45
f 36/36/36 37/229/37 47/227/47 46/46/46
f 37/37/37 38/38/38 48/48/48 47/47/47
f 38/38/38 39/39/39 49/49/49 48/48/48
f 39/39/39 40/40/40 50/50/50 49/49/49
f 40/40/40 31/32/32 41/42/42 50/50/50
f 41/42/42 42/41/41 52/51/51 51/52/52
f 42/41/41 43/43/43 53/53/53 52/51/51
f 43/43/43 44/44/44 54/54/54 53/53/53
f 44/44/44 45/45/45 55/55/55 54/54/54
f 45/45/45 46/46/46 56/56/56 55/55/55
f 46/46/46 47/227/47 57/228/57 56/56/56
f 47/47/47 48/48/48 58/58/58 57/57/57
f 48/48/48 49/49/49 59/59/59 58/58/58
f 49/49/49 50/50/50 60/60/60 59/59/59
f 50/50/50 41/42/42 51/52/52 60/60/60
s 2
f 61/61/61 62/62/62 72/63/63 71/64/64
f 62/62/62 63/65/65 73/66/66 72/63/63
f 63/65/65 64/67/67 74/68/68 73/66/66
f 64/67/67 65/69/69 75/70/70 74/68/68
f 65/69/69 66/71/71 76/72/72 75/70/70
f 66/71/71 67/73/73 77/226/74 76/72/72
f 67/225/73 68/75/75 78/76/76 77/74/74
f 68/75/75 69/77/77 79/78/78 78/76/76
f 69/77/77 70/79/79 80/80/80 79/78/78
f 70/79/79 61/61/61 71/64/64 80/80/80
s 3
f 81/81/81 82/82/82 92/83/83 91/84/84
f 82/82/82 83/85/85 93/86/86 92/83/83
f 83/85/85 84/87/87 94/88/88 93/86/86
f 84/87/87 85/89/89 95/90/90 94/88/88
f 85/89/89 86/91/91 96/92/92 95/90/90
f 86/91/91 87/93/93 97/224/94 96/92/92
f 87/223/93 88/95/95 98/96/96 97/94/94
f 88/95/95 89/97/97 99/98/98 98/96/96
f 89/97/97 90/99/99 100/100/100 99/98/98
f 90/99/99 81/81/81 91/84/84 100/100/100
s 4
f 101/101/101 102/102/102 112/103/103 111/104/104
f 102/102/102 103/105/105 113/106/106 112/103/103
f 103/105/105 104/107/107 114/108/108 113/106/106
f 104/107/107 105/109/109 115/110/110 114/108/108
f 105/109/109 106/111/111 116/112/112 115/110/110
f 106/111/111 107/113/113 117/222/114 116/112/112
f 107/221/113 108/115/115 118/116/116 117/114/114
f 108/115/115 109/117/117 119/118/118 118/116/116
f 109/117/117 110/119/119 120/120/120 119/118/118
f 110/119/119 101/101/101 111/104/104 120/120/120
s 5
f 121/121/121 122/122/122 132/123/123 131/124/124
f 122/122/122 123/125/125 133/126/126 132/123/123
f 123/125/125 124/127/127 134/128/128 133/126/126
f 124/127/127 125/129/129 135/130/130 134/128/128
f 125/129/129 126/131/131 136/132/132 135/130/130
f 126/131/131 127/133/133 137/220/134 136/132/132
f 127/219/133 128/135/135 138/136/136 137/134/134
f 128/135/135 129/137/137 139/138/138 138/136/136
f 129/137/137 130/139/139 140/140/140 139/138/138
f 130/139/139 121/121/121 131/124/124 140/140/140
s 6
f 141/141/141 142/142/142 152/143/143 151/144/144
f 142/142/142 143/145/145 153/146/146 152/143/143
f 143/145/145 144/147/147 154/148/148 153/146/146
f 144/147/147 145/149/149 155/150/150 154/148/148
f 145/149/149 146/151/151 156/152/152 155/150/150
f 146/151/151 147/153/153 157/218/154 156/152/152
f 147/217/153 148/155/155 158/156/156 157/154/154
f 148/155/155 149/157/157 159/158/158 158/156/156
f 149/157/157 150/159/159 160/160/160 159/158/158
f 150/159/159 141/141/141 151/144/144 160/160/160
s 7
f 161/161/161 162/162/162 172/163/163 171/164/164
f 162/162/162 163/165/165 173/166/166 172/163/163
f 163/165/165 164/167/167 174/168/168 173/166/166
f 164/167/167 165/169/169 175/170/170 174/168/168
f 165/169/169 166/171/171 176/172/172 175/170/170
f 166/171/171 167/173/173 177/216/174 176/172/172
f 167/215/173 168/175/175 178/176/176 177/174/174
f 168/175/175 169/177/177 179/178/178 178/176/176
f 169/177/177 170/179/179 180/180/180 179/178/178
f 170/179/179 161/161/161 171/164/164 180/180/180
s 8
f 181/181/181 182/182/182 192/211/183 191/203/184
f 182/182/182 183/185/185 193/210/186 192/211/183
f 183/185/185 184/187/187 194/209/188 193/210/186
f 184/187/187 185/189/189 195/208/190 194/209/188
f 185/189/189 186/191/191 196/207/192 195/208/190
f 186/191/191 187/193/193 197/212/194 196/207/192
f 187/214/193 188/195/195 198/205/196 197/206/194
f 188/195/195 189/197/197 199/204/198 198/205/196
f 189/197/197 190/199/199 200/202/200 199/204/198
f 190/199/199 181/181/181 191/203/184 200/202/200
f 191/184/184 192/183/183 201/201/201
f 192/183/183 193/186/186 201/201/201
f 193/186/186 194/188/188 201/201/201
f 194/188/188 195/190/190 201/201/201
f 195/190/190 196/192/192 201/201/201
f 196/192/192 197/213/194 201/201/201
f 197/194/194 198/196/196 201/201/201
f 198/196/196 199/198/198 201/201/201
f 199/198/198 200/200/200 201/201/201
f 200/200/200 191/184/184 201/201/201
